<mxfile host="app.diagrams.net" modified="2021-01-19T10:05:39.853Z" agent="5.0 (Windows NT 10.0; WOW64) AppleWebKit/537.36 (KHTML, like Gecko) Chrome/75.0.3770.100 Safari/537.36" etag="fYVR2ODP96sU1uEeK23i" version="14.2.4" type="github">
  <diagram id="hH3U7Un8vqlcvS0E5S0r" name="第 1 页">
    <mxGraphModel dx="782" dy="505" grid="1" gridSize="10" guides="1" tooltips="1" connect="1" arrows="1" fold="1" page="1" pageScale="1" pageWidth="827" pageHeight="1169" math="0" shadow="0">
      <root>
        <mxCell id="0" />
        <mxCell id="1" parent="0" />
        <mxCell id="BToxjoX7GWgsHcNTnLzm-1" value="" style="shape=image;verticalLabelPosition=bottom;labelBackgroundColor=#ffffff;verticalAlign=top;aspect=fixed;imageAspect=0;image=data:image/png,iVBORw0KGgoAAAANSUhEUgAAAXQAAAGQCAYAAAC+tpvHAAAAAXNSR0IArs4c6QAAIABJREFUeF7svXmcHFd1t/+cW1VdvcyqfbFlW5a8ybsGCFuwQrAdvGAbJMIScMIiAgSSQBYweT0OYJJAEt43gbwOEAiB/JIxGiB2MGASyeQNwSCBF41svMm2bMuyrGWWnu7a7vn9Ud0zI1nLzGjWnno+n3aPW93V1d23vnXqe885FzIyMjIyMjIyMjIyMjIyMjIyMjIyMjIyMjIyMjIyMjIyMjIyMjIyMjIyMjIyMjIyMjIyMjIyMjIyMjIyMjIyMjIyMjIyMjIyMjIyMjIyMjIyMjIyMjIyMjIyMjIyMjIyMmY1nQZgxRn/sPKk07+4auRjGRODc7wnZGRkZJw4nQY67cqVX12BOJcZ3FVti65+/uDzv3cg/bcterwtZByfTNAzMjImmVTMTzvti6eoa34NFDFisbK6deFr9/Xu+1Am6hNEJugZGRmTyEgx9y4Hgwg2/TcRUWdVJuoThxzvCRkZGRnjQw3ICDEXEZEYqPvmVhUHVNTwvSd+8bad9dcca6sZRyebkMjIyJgMJBXzr48QcxIO1RyTPiYqlstOOfMLp9XEPAs0x0km6BkZGROMCqCnnvrlU/HsZcORuRxJqEeIeu7SU8786mmA1raRMUYyQc+YY6zP5o0mFRUQXbbslqK6zqutFVeViGNrjVHVWBXHKL+6+PyvlkAyUR8H2ReWMZcQQEfcZ0wKqaiffvo/rUqM/iqoiog9SoQOqKqqQdUYV/7jsQff/hDZbzQusgg9Yw4wFJXr4sWXLiIVimzsTxqigDz66G88kqi9E1Wjqgb0CAJdF3NjjPV+UBNzyMR8XGSDOqOB6TRr1qzPwa0JwLLFl73TiPxkyZJfWwjYrEpxUlHoNLseuf7RBL4/LOqMyGBRBZFUzM0PHnvsLQ9nv8mJkfmJGY2IrF271tu9+/9L9u7dkaxlrcfS8z4J/LkxuTZI2gcGHr0NFhrYcbxtZYybLQqdpm//7+5vnnfNAQOrABFJo+80MhfHWPsfjz32Gw/Xc9aPs9GMY5B56BmNgsB6A3sFtsT1B5ctvvxNKvoxEecc1TiU1A/wrPJLe/Z8/264xB35/IzJIBXqk1d95XQHLhXjJADWWtex7p3DkXkm5idKFqFnzHLWO2spuLvZncAOhcftggVXN7c1n/q2puZVXxBj3i/CQtWkCrhAJOJ6oloaKD+6Ca4nq06cbIYj9ZYF6/eL1dWq1nGsvfOxx96WifkEkkXoGbOUS9z0fji6Xr7osgvU6FsVWS9iTgFF1YakE2wugKpaEfFA+q3qBXv2fH9nJihTRa0NwJn/dKa1ap54+G0PZN/9xJIJesZs4YiWykknXTYvju3VovImhF8x4rpWE0CD9DUYXjjOIxE3bzV+37PPfv/zsNaDbREZU4DWXK/D/86YCLIZ5YwZTqdZu3atl/59a1ITc1my5PJLli697As21u1G3C+LcS4FHKtxRdVGpBG5wzGCFhF5RfrXyixCnDLqBUOZmE8GWYSeMUPpNHCbMzJyXr78tWfYOHkD6HpELhRx0DQaDwGr4MjogpRExORU7bbdz36/o/ZYVsiSMevJBD1jBtFpYIuBLZZavvLixZeWgCuN8DZgnYhbAAtqI01F3Eg6jkc9lhWsIB7oznnzW8/q6bk1JBP0jAZg1AdBRsYkImvXrnW3bRuOxpcu/dWzseYtCG8WcU4DatE4VdJx6x55U8enLuiq+vize54+E3qOIOi1PiIjJV4gswkyZjKZoGdMJwJr3ZG2ypIlr3mtqLxbhNcirjfCUqn3YDnxVFshEUxOjNz/1FPfuQjQm4AbQUVGJ9iqKjfdhNx4I9wKcmAbZi2wDTijH72LLZyz9xJdv35420Ctm8no3iMjY6xkgp4xHRhYO+SPr1mzPndgX99bFH2viOkAg2psgXAMvvgY0MiYXL5v/74v9ld//K5jPlPTSH20Qn88OlXNObUTwBlrU5HfC7rjJrSzM1vYIePEyAQ9Y4oZrsxcs2Z9bv/+3utRfk/EOQu07o0npJaKYSy+ttai+BeMaqnfCYAxxobV0H3t297447d/9F0/f/7pgSWu5+VUtSBCQcR41qpHGlB7tZfHKBYhUTQSkYparYpIBbSMSC+qvaqmF+x+RJ5D7HMaOwfFzfUWPPa/drUEh+/ZSLpUnQPbMGvXwmO3Ytevx07UiSRjbpAJesYUMTThGQMsXXrpW1BuEHHPhgRVrYvdMVMNgbrE67B014Po2t+iMqTegozcnBhDEsfkCwX78X/+B3PS6e1Uyqlyq6Y3dPgsUu8PKEP/SZ97+M3UriGsrd0SSBKIwiABPQCynzQYfxrkCSvsBJ5wVR63JrfnurNlH0dAVc0WMHtB16e7pbUPmgl9xgsY98RSRsZoWctabxudEWCXLbr0ZSr8heC8HFFU4yppJH7ksViXrSFNFsSI1PRaRkr5MEc/HxhjGBgY4Jev/jUzf2l78vyzlcSIGIZ1f+R/a5aLUG8oNUJGa/+vqIjKoXsqWsu+EWMcx3EXOK4scBzOEJOKv1oIqhBFQYIN9m7qCZ4Q7COC6UF4wET6QOD6O0Uk5JAOhcOR/Blr0btuwmZWTUadLELPmEwELnFgS7xw4SVNjpP7c4H31vLHDynJB44s3pKK95GFe2wYY4jCkFJrCzd84f+wcNlSgmoVUw+vT4T6rh3a8luHbppeAIy4phDAEWPEcVxcT3CcdDNxDNXBIETZhbAd1XutkbsF7Xn9OYUnOIzNqu5D25Dda0k6JRP3ucwJHSAZGUdnvQO3WkCXL7781YnoLY5xTrc2jkk9cgeQWkfsGiIitYC4puBH3vY4kHTxynJfP+/q/Cjrrruc/oNlHHd6LlJlhLsjUnP/GZ4FEGMcz/Pw/DTUj0KoVoJ+QR5R9G5U/wc1P73uPP+BkdvtVDWv2oLZewm6AzQT+LnFxB0wGRlDDE98Llly2f8ycBMiqCYVVfFkhPc9FIGfYPR9PFzHsP/gAFe/bQNv/dB7KQ9UJiYynzy0ZuUnNZF3XNczOd/guJDEUCkHoSoPivAji90sMT96/QXFp0ZuZPNmdR9qRnbfTpJZM43PpB5EGXOReqOrS9yli3NdYtxrrY0iEUlAcgjD6j3JIg7UJiwd9h/o54rLLuatN3+aIAZJAsSceEr7FKIIFq356YIxYhzP93C9dBK2Ug76UH6M2jutcf/j9ed498qICP2Wreq1r8VuEEmO+i4Zs5pJP6Ay5gaqal772r/x7rjjA8GKFVe0h2F0hxH3JRBXFfFExEx2FH44jhESq/QNxrzxkuX8wRtWcrDlDJ465QrwCkgSgMwqUR/JIf48gjiO6+SLDmJgoDcAuB/hO7Hq7Ssr+bs7OmSogGvzZnX3XoKuJ0uNbCSm9ADLaCxUVf5+G+6712KlFvWtWHFFexzGW8Txzoc4APGPt52JRElTZhxHKFcTjMB7rjyNt7/mZKpRAuEg1dbTeGr1eqJcK05SRWevqB+GqiKxACLi+YUcrguVwYQkjn4B8m8a2+7XX1D88YhXyDZwbyebUG0EMkHPGDOdnZ1m6ZU3OhtHRHx3q87feU/f5X/y5nfeWD5YXm1cQrWaO9Z2JoOhqLwcsWp5Ex96w+m88tz59A5GgCDGwYnLBIUl7DrzTYT5eZikOpsj9aMx0p5xc3mfnA+VgYQ4jn+O6jdUo+43nN/yYP0Ft2xVr/0x7IYNmSUzW8kEPWNUqKps2YKz9xJ0pAe7aXtlHfDrfiF/9df+4nNL/nPTt8jl/VjVTln6iADGCKrKQDUh5xqufflSfuvyFSxszdFbjnFMPfcRVAxOXCEoLOTJM99KlG9vVFGvo4qqIAng5ou+eB709wahwGYr+nXX5L/1urOkH6CzU82rbsTcBTaL2mcXmaBnHJetW9Vbu5a47rV2/ax/oed7b7TwW45xLlqwzOXbX7yDW/7XJ+Lm9jZBdcqU0XXSiLxcTRCBF53Rzm9dvoKXnNVOJUgIIovrHD7MFRUXJx6kWlrGk2e9lcQtIjYCmdGZLyeOKiCxCuo4jpcvuKjCYDl4WpUuXPnKG87y76s/fetW9W7P8ttnDZmgZxwRVZUt4KwTGVru7Rs95YsMzrtB1je15OYHVRBBdz36WHLzuz4ocRga1/PE2sk/9o0R1CoD1RhjhItOb2XDq5ZzyfnzcV3DQCUeityPhoqDE5UZaFvFU2e+OZ1ZVMtEpr/PZBS1omIRxM3lnHxBGOitIsh3SJIvRA8Wb6vbL7ds3ertXrs2E/YZztwYuRmjpqtLnQMrMSP98U091asFfQ/I5c1tvlTKShSGEWqNXyw4n//In/KjO+6kZV47STyk/5OGMUIlSHCM8KIz27jmZUt56TntlPIu/YMxVhXnGEI+jKLi4EZl9i/qYPfp12KSoHZUjOb1DYVVSETEKzXnSCKoVoLtInyJwP/KtRfJQUizYwDWrZPJ/6EzxsycG7WTRVeXOrN5Mqme7dAhqZB39WjOJVwPfDBfzL3IGKiUQ1Q1RHBsYp1CqcCD2+7l0+//AxzXRST1sScTxwgD1ZiLV7Xx3qtPY80pTeRcQ7maECd6iFc+WlQMTjTInlMu5/mTXokTDTayn348VJUYwckXfON6UO4LnlXVL5LoLfXCpc2q7t5b0dk85huRKZu4alxUOjuRDRskmeje2VNBfQJMUmsl+uq9z5aaTMs7lOr7i8351TaBaiVIakXpBsil2c+KCPzw3+4gqFRpbm8lieJJtSuMQBhb2koeH3nTas48qYl9vSHV0GKEI3jlo0QV6/os3PUfVEtLGWhbhRsPNlA645gQETxAq5UgkQrqerklhaJ8rL83+GB3T/XLMcHfrBN5BNKI/ZJLsJJZMTOCBp8Bmlw6O9WAaGen2Bv+Sl8sIioimj4+s1FV2bpVvc5OsetE4tu2avEbOwY/2OS2bi+1Ff53vpBfPdgfxNXBIEZxGO5PjrWWXD7PnqeepefureSLBWwy+d6zSJpbfs3LlrJqaYnnDgY4jtSi8vG/d9pKxSBYlu68DS/oxRoPJvlqY4YjkvbbceMotH0Hg8hxvebmVv8Drvj3beqpfn7TQ9WV69ZJLCJ2s6rbNYWT4RlHZsYLz4wljcYNwEc+rR/w89z90b/UG4b/WcevMJPMZlVXRLSjQ6LNm9XdtL363qgQ7GhuLnw25+dPLfcGcTAYxKQi/oKrOLWWXN7w8D33c2DvPlzPm3SrRWrR+eI2nytespggtqP0yUeHYLGOT67yPIuf+C4q9Y89uZ9rlmBE8JI4SvoOBpExTqG51f9tInq6ewY/u+nhwZPWicQbRJKtW9WbyWO/0ckEfTyoSudNOJ2dEn/0M/pBP8//Dqrg5/nERz6jH+vsFLvhVsxMi9S7VJ2uLh3KXOneXnnbgUXBvc2t/uc83z+l3BvEYRAkoC5yDDuuFg0/cl8P1iaTHplDqiiVIOGXzm5n5dLi0KToxJFmuCRegdZ999H+3FYSN59mvWTUcUTwbJLYgd4gMsbkm9sKH5TQ7OjuqXyyq0fndXRIJCK6WdXNhH3qyTz0MVJbHHhIzHN5Phuma+3E1SpOvsjHP/IZ5VMb5BOsV0dVZbo99a6uLufAyvVmQ23C85s9lVeD+WShKfeSJIGB3mpMumhEOh6OIdCqiuM4VMsRzzz+JMY4TEUUq6q4jvCqC+bX/v84LxgvCmo8Fu76T8otpxL57XMjP31sGMCotdp/MIwc12sulMxHB3qr7+juqd4c9/zb59aJxJ2dajbrcACRMflkZ9CxcFhknsvz2SBAJV1RxqG2soxfwAQVPnbzh+ST9Sh9ulqX3rJVvXoK4jd6+tcI3idyvn+N40B1sDbZeaxo/DCstXi5HOXePm7e+EGee+oZ/Hyeycw9F4Eotsxv8fnS719IW5NHnNgT8s2Pjtby0wfpXXA+T6/eUKsizQT9GCQK1vNyXr4g9PcFPYLccN0a/9uQjsF3jyhMy5g8slE6Wo4g5mGaslwXc6h9n0EFmy/wiY/+pd7Q2Sm25xxkqu2XzZvV7exUs7FDom8/qM3d26t/ZvB+3tzqXxMGga2mHrkZi5gDoIoxhqBaZbB/AGPMpMfnjhGqoeWsk5tY0JojiidLzGHIenELtOzbTvO+HhK3AJpl5x0DR8CLotAO9AVRvuCvyRdz3+reUb2te0dw7saaDXNL5q9POlMqMrOWI4l5iHKomNcxANUK1q+J+q21XN2pGMz17JV16yTu7BT7rQeCNydJsKOpzf8jY4w30BuGMryG57j2R0QIqwFJnEyisA6jmla9nL2iGc+d/BPIECIsfHozblRGjQeZn35MauPKCypBXBkMbKnJvxLVe7q3V/+sa5cWNnZIdOutmCwbZvLIBP14HDky11onu6N9f2mkPjgs6p2dYm+6aXIj9c2bh7NXuh+ontHdU709X8x93cv5J/X3BlFirYWp74B4IghgVcm5wqplJaydGjkXFOv4FMq7mbf7f9I0xozR4grIQH8QiYjT3O7/kdsX3N/dU37dhg2SbBBJbtmq2Rc6CUyauDQCehSbhXQW8HhRhkGmxn7pVDW31KJygO4dwQ1Y7i81+1cMDgRxFAWJgCcT9HurKp7vYRwzJemKcaK0ljyWzc8TWx3fZcV4UCVxfNr3/JT84HNZbvrYEAFPVbXvQBD5ef/0fLH4rW/uCP5l047y0o0dEnWqmnorgYyJYUIO8IbkyNksdZtltN/bIfbLRz6jH5to+2WzqtspYjd2SLTp3vLF3T2VnzS15D5hHCc30BdEgFsrDJowrELRxDTlBKuCTKIJIiLEidLW5LGgNUeS6DiNorEjWNS4uFE/83b/CDUuU5HR02CIiAzbMM25N4p1erq3V97eKWLXrZN4q2bR+kQxWmGaWxzbMx/rdzY0UVoo8vF6pL5hw4nlqQ955bWUsE09lU5xnW2FYv5F/b1BZG2S1Eq4JxQRiFVocUPmlYRkCvQtSZTF7T5F3yGZygi9NkFq3QKtz99Hqe8JrONnXvqYUZDUhunvDSLH89qLLfmvdPdUv911z+DyDpGoS9VRHf/xkJGSfYGHcVSbRUdlsxyNoUi9br/ceqskPecg44nU65epHR0Sde8Izu3uqdzd0pa/UUSolINYwJvoqLyOiJAkSnPesHSeT5xMvsAmqixo9fE9U/PQJ/sdD0XFYGzAvN0/qj0iZJH6uBARvDiO7GB/EDe1+Fd7nnN/932Vt2wQSUTEZtH6iZEJ+kiOYLMEY7dZjsYRs19uumlsol7PYBER/eaO6u+K8vNCKf/i/oNBqKp2zGmIY6Q+SSmOw2lLS8DkS5sqLGjJ4TqC1SkpTD0UTdsCNB18mGL/k7UofbI/deNSz7Ia6AtCx3Xbi635r3X3BP/U1aNNHSLRLVvVYwzHRMYwJypSjcOx88wn6ns6Yp76aNoEqKrcslW9jg6Jun7Wv7B7R/W2Uov/1xhxK+UgAnJM3H4eE1ElcfJpy1wmL2I2IhgDniMsas1Nm4YKoOJgkoC2PVuP9/SM0ZOL4ygZHAiSptbcW12C+2/tqbxyY4dEiGiW3jh2pkQAZjrHyGY5Up75iWIAKhU0PyJS7+k5eqReT0fc2CFRd8/A5W7Ovb+p2b+yvzeINC3RnLLL1FRTLYlXomJzk+Ini6TFREGUcKA/Sptyteex06XokHrpjk/LgQcoDDyVeekThwM4A71B6Of9U3Ou98NN24OPAWwQSbp6emZVmu10kwn60W2WhMn7foyAHpL9cmtqvxweqY9MR9y0vfKnOb90h+fnFw/0BaGkQj5Z+3gUBNGExC2S5NtqS7Yd7zWjxwhYCwfLEcvm57n+0hV89rfP47yVzbWGXMfbwmShqHEwcZW2536GZq0AJppcUA2iJI5pact9vLun8p2uHp23Yc2aMMtZHz2T6rfOeEZXzj9ZGMDWs18+8hml88PyifVdww29unp6chvWSNj9gM4XG3y9qc2/rP9gUD/ZTE/kIoIkCYnjYFoWTmg3QiOSlvUbeM8Vp7L+l5exuN3HaroIdNpyfQLPHmOilvHi5Gg+8CB+5eWEfhsma9w1kXiA7esNkqaW/K8N9FW3f6un8sZr1sh/dak660ElW0jjmMzZkXhEm+Xo5fyTxZD9UhP1j9UmSp1bbtnqbVizJux+IHopNriv2OJf1ncwqK/zOa0nYiVdrchbuOJ4Tx01RiBOLJ5n+OT1Z/OBa1fSVHDZ3x9ycCDGTv76GaNCjYMb9tG8vwd1srz0ScAIeOW+IPTz+aU47g839VR/p54FkxUiHZu5KehHs1mOXc4/WQzZL/kCH//oX+qfdHZKvHFjR7Tp/so70ORHOd9fVh62WKZd1oQ0yaN5wSIc10UnoBxfgShR/nD9Ki7rWMTegwFhbHEdg+uMfZ3QyUTFoWX/AzhRJV0IYxq9/QYmF1aDyFpLU7P/f7q3V78A6eLUWzML5qjMvbPd9NosR8MAtlpFCwX+9I8/rfErXj9Y8tz8DYPliDAIYqbLYjkCIkIcw7xFCyg0lYjDEDHjPw86RugtR1zxkiVc9dIl7O0N8dzxb28yEVXU8ciXd1Psf5KB9jOQuMoMOM82Ip6q2nJ/YJvb/Xd291TWEMfXdFwgz3X1aG7DGgmPt4G5xsw8aiaLmWGzHI00T72K5nLcvOex4g1BNVCbWMsMO/GKMcRhxLwli2hpbyNJxt91UQQSqxR8h9e/cmmtz/nxXjW9pIVGEc0HfsHkl1XNbeo56/0Hg7DUnH8prvezb/SUL9qwRmqTpVm++kjmjqCPr2vilCKkad1xpPYXW0l2Pejg5TCqM+uqPo3QY5paW1h++mlEQYgxhvH4yfWl5U5fVmL18hLV0GJmvKIr1niUeh/DC/tRmZpVm+Y4uYH+IPTz/nKj5iff3BFcs7FDoi7FjKUwr9GZEUI22Zxg18SpRhAxrofzxA5XnnzQwc2lYjGTRF2t4nqw+oI16FCmy9iPq3qEvmJhgaLvTGuu+WgRUkH3qvsp9O/COrmZ9eM0KAK5oBLEjue5np/7Zn2yFKCrKytCgrkg6JNbzj+puB7s2uGy60F3xom6GCEO4ayLL6TU0kIcx+OyXVTTs2rBdxCESSw8nVgkzccv9T12vGdmTCSCG8dRElaDdLJ0R/XPREQ3bJAkqyyd4YJ2whzFM5dZIOZ1HA+e3OHy1AwTdREhDAJOWrWSlWvOojpYwYyj6kck1e++wTjtESPMDvdC00KjQv8unLi25uhM+GHmAII4iCTlgSBpbvX/aNP2ypchrSyd62mNYz8CZwmT1DVxWnA9eGKGibqIkMQx+aLLi159SSpw49gpVXAd4fFnB+kfjDFmNoTnqe2i4pKr7iNX3Vdb0Wjsnz9jnKg6KKb/YBC1tOev7+6pfhtVWbdO4rlcWdqYgj495fyTijsDI3UxhqASs3bdK1h66gqCSnXM6YuJVYq+w85ny/z80d6hnuezARWDkwTkB/fUWgHMjv1uIIRaBkxzm391d0/1P7t6NLexQ6Jbtm6dk6I+tqNvFnC0yHya88wnBGeGRerGGMJqwPzF7Vxy7RW1bBcZ+05J2rPxn36wi0pg8dx0laIZjwhogj+4p/7AMZ+eMSkIkOs/GIRNbflLHK3+8Hv3amljR0c0FyP1BhP0tAfKFHVNnBYOt1/GMQ85oRjHYbAc8aprruSUs1ZTKQ9i3LGl8VmrNOVd7nm0l7/ufpSi75DPGaLEjvncMOWIIVfdj7Exs2cCoCHJDfQGYXNr/iVlN/jhdx7Wlo0dEs21qtKGEvT169PPc8On9f2NYLMcjZH2izE6raInIsRRRHNbE9du/E3UWtQqMsaGVYlVmgsu3/jhM3zsKw9ycCBiXnMOx5Fp/XzHQzG4YR9iIxST6fn0khvoC4JSi39xNUxFvWOO2S9jO+pmMJ2d6t56qyQ3fFpfV2zlb4KAhAaKzA/HzcHO+132PuXgetMr6sYYyn2DvOjVr2DddVfTf7AXxx17soFVaCo4/Pvdz/LOv76Hv7vtcXrLEY7DuCZcJx8FEZy4grEh0365lAHgl/uCsNTsX1ANg7u+9uN9LXPJfmkYQb/xRhKAPp/N5T5uKxRxJI3OGw4RiEKYv8zSusCSJNMrJCICIoTViA2/827OvPB8BmqiPlYhtgptTR7PPF/li3c8wYH+CM8xzMh5UgVq/eFNEpPauTNxR+ccuXJ/EDa1+BcWm0v/edvWZ4obOyTarI2f0tgwgi4iur5Lnb/5gPTd/GG5ulrm3wtFckBDNfCpi3n7YssZL4rIFRSdAa1ljTFEYUShVOLdf/oR5i9dTGVgANcbezfCxKapjKuWlVhSX4h6mj/fsVEyIZ9x5Ab6gqCpxV8b5tvv3KzqrhOJG734qGEEHeDWDZLUS4Bv/rBcOVjm9kYSdTEQBcNiboySxDOntazjOFTKZZaddjLv//ObaGprpTIwiJsb29WuAEFkWb4gT3PBTRt2zcQMEgFQVBysqfdGn4H7OXfxB/qCsLkt/7IDO6rfgdqydg0s6g0l6AAbNkjS2ZleWn3qw3LV4CC3F0qzX9RFamK+pCbmjmKTmSPmdRzXpdxXZvX5Z/F7f3UzbQsXMHCwL43Ux8iKRUVynqmtVHS8Z08HAmpJ3GJtjdEsSp+BpNkvbfnXdPdUuyAV9U499qLss5WG/FCdnRIPifqH5KrqLI/Uh8S8Hpk7YGOZsSufOa7LQG+ZVeefzR9+7tOsXHMWB/fuQ4zUujIeG1XFGOH0ZaWaRs5coRQsQXER1s0jmszUM8/cRjXXfzAIm9v99d/cUf3c8MON16Xx+EfXLKWzU+K6/fLJD8lVs9V+GfLMlwzbLDZhxop5nXqkvvTUFfzB5z7DZW9ZT1CpUq1UMI6DcWpXvYdFtUIthbHoctqSYq0/+kw+7oT+9jPRbEJ05pKOH6//QBCXmv33btpe+ZNOEbulATPgZrgsnBiH2y/VWWa/vDAyn5mkkwe0AAAgAElEQVQ2y9FwXJdKeZCc7/ObN/wu7//zm1i+8lQGDvZSHRzEOAbHcw+NagXCWFnS7rN8fp4gmmn90VOfXMXBDfsZaDuDgfYzcZJg5p9l5zYCmP6+wBab8n/a3RP+5jqRuKunZ8asBDYRzKQjZdLo7FS3s1NigBv+Um/LF7myMkjIDFrW7XBmi2c+Gqy1oEqppchAb5kt37ydH377Ozy983FQ8IuFmscuOAYODkRc8aJFfPz6s+ivxDgzomGX1LIUBbExTlyl3LqSp1e9gTjXjAxVimbMcBIR46TWX/QrrzursLmRlrObMyOwq0udDRvSZvgf+YzeVizNXFEXA1G1McR8JEmc4OU88iWPg3t7+dkPf8S2zf/FY9sfoHf/flQVz3Xoqyp/8rY1vPXVJ3GgP8J1JuqDj8xCqf/9wswURWoP1R5XTXPNbQxqifxWDi5ay76lL0ONh9goi85nEYomXi7vxGHQj6HjurPzD92yVb2NHRId77UznYk6UmYFL4jUS1xZKc8sUT9iZD6DJ0DHilqLtYrn5/ALLkkEu594kkfu6+HJhx7h2V3PMPD8c9x43ULOPLmZSpicsOWSCvQotlHz80UtokntZlExxG6RoLiYgfaz6Jt3NmF+HiYJaxOhDfLjzCFUiQol36sOVh8aiHsvftsFS8qdmze7nevWxcd77UxmFKO8sRgp6h/5S72tOIPslxeKOdi4MfVCra0taCH4eR/PN2AhVJB9T3PqA/84YTaG2Ahjo1qLWwCpiffwEs/Doi8kjk/iFYlyrQSFRVSbllEpLSMsLMA6HiaJ06h8tCeKjBmJKmFzm5/r763+++vXFK5MH0sb/B3vtTOVOTkaX2C/NHFlZYAQmT5RP7wCtJHF/HCstahNs1nEGIwxnNzzZQoDT2OdXN29HjOKYGxMpWkZQWFhurJQbVsqDmocVFyskyf2iiRugTjXTOw1E3ulWn55OiRELcZGiCZpE65MyBuFqLnN9/oPBH9+3bn5P65XlB7vRTOVOTsqR0bqH/2M3l5o4orpsl8Oicw7amI+V6/kbULsFln2+O3M2/0jEq+U2hrjGKqpoEdUi0t44pzfJHHzGBujtUgckWG/vHbOEHTIMxe1oBZBa7F8FpE3IIpg8wXfqZYrb7ru3OK/dPX05DasWTMrJ0nnomQAhxYf3fxhuXJwYHry1F9gs7iKtXNUzAEknfytNJ3M8Dqd4xNRwWKdHMX+J1n62LdTb9xGmCRMb3EVJ67gRhWcOL2ZuJp64zYBFMSg4qT7kol5IyIoRGECYr78jV8EZ21Ysyacrd0Z56psAIdVlE5Dm4AXFA3VJ0DntG6kaYGV0lJitx6djxdB1BLnmmjddz/tz20l8QqkQi01kTapt37IbdhPz5gTOHEcR4WSnzeJdtUzXmZje4BZt8MTzeFtAioDU9OlcSgyX9yY2SzjRgSjCZHfRlBYeNhk5jhRxRqPhU/+gPzAbqyTB7XHe1XGHEIQr1IOwqYW/7wF+erfA5xz6+w7o5/gkdIYjGwTMBVdGoe6Jh5Szp+J+RCaWiXVpuWpj32CCBY1Lm48yJLHv1PLnjEMGecZGSiguYHeICk156/v3l55+4YNknT16JTPqZ0ImYTUmKo2AY1UATrZVJpOSv3rE+5imFoviVug1PsoC56+iyTrjpjxAtKDMKgmYOTvvrGjunrDGgk3b549C2Nkgj6CkfbLJz8kVw0OcHsxFfUTDxM5gs1iyCLzoyA2oVpaQuw1YTQekTF+AqjFugUWPPPfNB18mMQtnKBHn9GAOHEUR8WSXxDVrwKsWyfxbOnMmEnJYYy0Xz71YbmqPMC3RDAiJybqL4jMTS2bZVYMk6lGMBrXCnsW1DJOTpw0O9EAliWPfwc37McaL4vUMw5BBK88EEQtrflf2rS98nGAv9/GrIjSM0E/Ahs2SNLZlXpnr3wd726eZ8s2wSDjW6M0s1nGiMiQj15pWs5ErrEnJFjHxx/cw+Inv4+aWXGcZkwxAm5/b4Dreh/r7olesbFDZsVC05mgH4VXLdxiAcI4uPHCdabUttjGcYAzVl05YmSe2SzHpV4dWmk6CTUT4aPXqfvpRdr2/py2PdtIvHxmvWQcjihEnu+AJl/o6tHcbEhlnNE7N13cslW9devWxd091cvdnP++SjngjI7Imb/cEgWjDxZfkGduFGuzyHw0KAZjY4Li0hHVohOLNS6LnryT/MCztUnSE3LVMhoMAa86GITN7f5ZLsGnAJZu2zajF8XIBP0wurrU2dgh0W3PaFHRz6NgLTEgq9eGzF+ejErUjzoBmon56JC0wCjyW2v56PWS/YlBUNTkcOMyS574bnpFYBzkCNOvSpbgOIfx+g8G6rje73+rp/LKjR0d0S1bt85Y6yUT9MNYuD49noP9lb9oacufFgZBKIKbTmAKq9dGxxX1F9oszO1y/nFjscal0nTyUfq56IibHXGrN2aRI98g7ddiIxKTo7R/B/Mfv5MIj8gKkQqJCkna1gVnYnJsMmYngpK4nsEin+9SdTZ2dMxY6yWbERpBvdNad0/lFa6Xe1//wQBq35FIKsrGpKIOsO9pB++wdOYX2Cz1RluZIoyD9EsbbDoZK26tyEjT6Lr276nUGixO7fmKYJEkhCGbZmR8LYhxwHHBuBjHQ5vmsSjejbHPooVWPEJcA65YXFFyYnk2yLM39HHFZvI+1xDc6mAQtbT75/Ztr/4J0Ll0Gw4TlM48kWQjs8bIPsjdPdVt+aJ/cbUcxMihJz1VMAZUlYe3eYeI+pFTEzObZXzo0OISXtjHih1fwYkGSSQHUhdvi0OIq1Vy2kdOeynavRgidrdcgc21YFwXvCKSKyK5AuSKiOeDl0e8POL6qbiLwdE4/XGH9qAWoYuyP8zx6GATzuxtlZ1xAihYY4zRxMZG5IJr1vg7ulSdDSITP7lzAmQReo1taZ5ptGlH8IdNLbmLB3qDCOEFXtmhkXraNnnf0w65PITVLJtl9GgtcNahjJb0gfTsZ8UlMT7WCEEpz2DpZNoPbieXg1y4F59e/HgveT2ApwO4VEGjVOyjPuIFr2H/WW/BSQZQc/jPqOkEqB56H2NqMVftDCzDu1lwEjyxJJqdoOciAsZaG5VafG+wP/gscOmOm2be1Eo2NIHNm9Vdt07iTTsqp4jKdsdxm+IktnKMOYbhSB0e+ZnLnscdFpxc72femHnmw3I78pH6Xd2IGDnGU3+7HtSmtXb1LUi6yIQ4WBxUBFv7tkXBiysUg920DD5E+8D9LH7+LpqCpzCO4sR9QJJ++RggbXFbt1/ERqhXYNfLv0ZYOhUTD5K24q3tkwzvQ3p3hB9qxGPpuyiPlJvoDwXHMZntMneJi02+OzhQfet1awpf37pVvY4ZtBZpFqEDe/emh7okfLKp3W8a6A1COc5CFyKpN25cWHlBTKFZWXJaguMoScN0TVTQegRdv6+JmQhp1aWASf8efrz2ajn0fiSi4FiLmwyST/rIh89RDJ6mqfI4LYMP0zL4CE2Vx3HjA2BDcPKAmwbU4qC4NdEdju7Td45Rx8NUn2f+L/6W3Ws/ywsmREdD3UOrYVBKbsJ+acHEAWLjrChpbiJRBCCf7Op57tsda2Rg5Apo080YRnhjUo/Ov9lTebXn538QBkFdIUb13dSPe8dLhXwCixqnhTSbJI3FVRwSyaFGsPVgVsFo+jyjcXpvAxwbYjTE2BCjEcaGOBriJFWMreIlA+TiPrykDz/ahx/uw48P4Id7yYd78ZIBTNIPNqqJrwsmjxUPFVNbuLk+B3X8K11FMEmF3S/6G/qXXoYTHkjPvmNhKCPGglfEPtvDc48/wJ4z3451HdygnKZSyoxOTc6YYFSJWtp9b+Bg9VPXril8dCYtWzeLpWdCGArxunuCuwvF3IsrR5gIPS46LDGzVczrQp6YPIlJBcpNIgrhbkrVXTRVnqAYPEU+eh4/3I+X9OHF/bh2ENEYY+P0Xmv3JIiNEY1AI4a/JB1xc1IxFBfEwYp7SO9z0YT6knCIMJZqURUHEw0QtJ7DUy//R1Q8RMexSKsIaII6PqZ6kNLXfo0+fxlPvPRTHFj2S5hYceLyEXz6jEZFwTrGMdYmoRXOfcM5+YdnSpQ+NuFqMLaquh0i0Tfur/xWsSn34sH+cYg5gMzeM2M9FTByilgDheAAi/vvYcmBHzKv/+c0VZ8gF+1LI2eNaoJYX5KtZrnUbzL8d91+seID+dqbHfotKdT89VSoBU1F93DGcZYUTbBeM/7Be2jb+c/sO/N9OMH+sQu6KohB4gDbvIxg5aW03f23tNxxFc+u/g2evOgPqbYswa1WAM2i9TmAICZJkqip1c+Ve6t/CryJ9cd71dQw9iOlQaifUbt6tMkl2J7z/VPCIEiAOXJEpgshx6aINUL7wIOc8lw3y/d9j1JlJ9hqKk412wMxNc+85lWPEOLDLZDhQTX6iHpUHPKeo0FAY6xT4qlXfI2odAqSVMYuuiJgI7QwH/eBbvzb34e4edzqfgZbV/PkxX/MnjPeigJuNDC8BmlGA5OGI66XkzhJLrnubO+u+tJ1x3vlZDJnR92BldsMgLHVDza3+qcEQRAxR8Q8Xc0eAq9EKXiKjoc/yq/cew1nPPlZSpWdWJMn8eaTuG1YydUi5yT1yDWqWSEJgq3d9JDbsKUywYw5/LCo8XGCvcx7+P+OsEXGuG+1KJ24gl26FkqLIIkIi4vwy09x5pZ3seZ7b6Bpfw9hoSmN6O2MsFQzJg0B1STnCyRJJ8DGDommu2/6nBT0TlWzsaMj6r63f5Ex5vcqgxaZI9+FaExicsROnjOe/idefc/VrHzqCxgbk3jzsaYAgKn74YcUw9UtldmCIJqgXgvNT3+H0p67sF5rmp40ZhwkqmJbTiJZ/mKIyhhNsG6B2G9n/hP/zgW3X8aKn/8t1uSIvRJiozH5/hmzDBGnPBDYfMm/pLsneB3A32/bNnbLdgKZEyJ2OLWyXXC9Dze35uZHYTQnonPRmNgp4SYDvOyB93LRQx8iFx8gyS0EkSEBl7FGsDMaTS0QGzHvoc9j4oE022XMQlu76jAO8apLQZw0cFebWlf5eZi4yqoffYjzvnsNpf0PpNE6ZNF64yICSTpfbz8GsLGjI7NcppK0uY5Em3ZUThF4b7k/RsYzETrLEE2InBKFYDevuv8tLN/TVYvI8xid0GVTJ5mxXyGIxlivhfy+n9Ly5CYSr4XhPi9jwUA0iD3pl9DWFUhcGfLKxUZYxyMqLKB9151ccPulnHzv35O4+bT9r53W4zxj8vAqA0Fcas53dPdU3gJp++3jvWiymHOCvrCmCKLye6VWv2RtEjEelZhFiCYkJk8+2scre66nre+nJLlFQ3nks+rjj3NXRRV1irQ/8iVy5SdQp8CY+5+LpNkuLctIVrwMosqINMt04QyxMXG+HSepsPr//Q5r7nwz/sBTRPmmNFIf63tmzHwESRJA5A9VVabTS59Tgt6l6qyTtMQfeEelnIA0+HegNcsB5UW/+BAtfduIvQWzLCqfCCzq5HEHd9H+yBexbp5xTd6qBQzx6a8BxzviCVFshDVptL5wZzcX3PYaFj56O1G+hIqTWTANhzpBJUgKRf/87u3Vt8JQb6gpp7HF7DAWbhmKzj/Q3OY3JXEcoo3tnQsJoeuz+ukvs+T520lyi3A0ZNyh7iwmnSBtpuXJb1J8/idYt3ns1ouktkty0i9h562GaNh2GfGkoWg9yi8gN7ibc37wZlb990dSvz2XWTCNhYCiaTKU/D6q0tEhUWfn1PdMn/I3nC46Vc26dRJ/+8HyMuCdgwMJ2uiFVWpJTIHmyjOc+dTfgdvEZCzlNvWM92SkacVoXGbeQ3+XVrGSXr2MGjFIXEWbFpOc/quQhMfcHbER1i2SeCVOvucznP+dqygdeCizYBoNwakOBkmh5F/YvaPyBoBXvWrq9XXK33C6qGe2xLF5T1Or3xLHcdToqYpCQuwYVjzXjR/sIjEFhAYQ9PHqOaQTpLkWis/9kKan70gnSMeTxphExKt+DXLNx329aIKoJSwupmXPjzj/9stY9Mi3Rlgws2weI+NICEMLXpgPAqy7ZOoPtoYWtDr1dUK/ft/BduBd1UFFGj1NURUrHl4csWzff4DkamX+mXAAIC7zHr4FN3gedXJji5SNi0Rl7NILSJZeCGGZ0VSfGhsR+/Nwwz7O/o/f4PT/uRGMQ+IVETvX5jQaEq8yGCS5vP/yb2wfuAwR3aw6pS7AnBD0lSvTz5k3+bc3teaXxGEY0+CfXUhIjE+p+gQtlYfB5BiTtdDAiFqsWyTX9yCtj38d6zaNTdBFQC3qFYnPujr14UfZbyZNb8yRuCVW/Oxm1nz39eTKzxD5TTVfPfuNZjWKui6IuB8AuGSKl6lraFGD1Dvv6JCoS9UR4R3JHJqLUoFSdRdu3F/LdGkkRiegR0UVdUq07fw6ft8vsG5pFBOkMizc9cnR0y9F206FaPAIk6NHRtQiQFhczLxd3+OC2y+n7ZkfExaaUvtlLCeXjJmGM1gOEfS13+4JLxIRe8vWrVOWlz66ETiLedWW9DN6D4RX5Yv+udVqkCANbrfUUAE/2g8ao5gTlcCZxQl+GMGijo9TfY72R7547F7pQwtkjHys1oGx9WTiVZcj0eAhrX+Pj2JsRJSfT77/cc777utY3vNVonwp3fZxTy4ZMxRR1aipNU+CfTdA+9q1U3aGHssInJXcdVd6yaPobztOai1zwnIwe0gnQbPL+CNRryBtfuo2inv/u5bGODJHfEREfkQUbEJ81uvQfBuSRKO2XuoYG5J4qeVzxl3vYdV//zHWeCROPkttnKUImOqgBeTXv/1gedkGkUR1alIYp+RNposuVaezU+w3e8ILQS4t9weITl9Z7pSjkJgiY07NmzMoiIPYiHkP/d90YlJqkfrhEfmREAcJyyRLLyI56SUQlRn7ISWIpsvZxX4bJ9/7l6y58024YR9xrikT9dmJE0VR1NSaa0sS59cBtox9YIyLKXmT6eLAtvTzWexvNTXnAKKxRlCzGQEqucVgvNRiON4LZh0n+lum3Rit10zh+R/T/PTtJLnWw6L0YyCSPtf1ic59Y81DH8+3XCtEUktUWMyCnd/i/H+/guJQvnrWtXEWYqI0cel6VZWpWqKuYQW9nqr43R6dJ6obqhVFGz1V8RAEY5XB/HKq3vxaufmJCuAMY6I+jggYl/ZHv4RbfQ518qOfmBQXCfpJVv4qdvH5tRTG8R5WitiIsLCQpn33cP6/v5Z5u7akk6WaZKI+ixBwqpXA+nn/vG/tGLwcYComR8c78mY8B2qpioNE1xSb84vjKExGcRHdMKgYHBswmFtKf3EVzNFy/2OTeuSiCdZtItf7IK2P/0st42W0gi7pakb5VqJz34gk4RgnR1+IsSGx345XfZ4133sDy3Z8jahQAnT0+5Ux7YhiXQ/UmuthaiZHT2zkzVDqHc/S/7NvhnT6ijmlaKk3mzjCc20vB03SFerHZQk0GkfIWtEEdZto2/k1/P6HUbc4evGspTDGZ1yBnb8KGWWh0dERxIZYtwgIZ961kVN/+hfEuULW3GsWoYKpVhIwcvm37h88eYNI0rl5cguNGlLQb701/Vxd9w2cB6yrDEYwp+yWGmIwFna3vxrrtmFsI3YKHsvnOYKQD/1LPY1xD+2PfBEdSyFWvb9Ly0lEZ78e4mrt5HkijJgs9Zo57Sd/whk//F3UuCRuoTEttAZDQJI4jkstfouFawGWNm+b1B+tIQV94cJ0pDvG2dDc5hu1GkqDftZjoeLgJhUONp3NnrZXIEk/VlxGLVSzgVEdHkcX8pHPGVqu7qnbKDz/Y6zXAqOOhgXiCvG569GWk5C4yvi99DoylI8e5RewvOfznPODt+DEg7VFM7J2ATMcUVCbgDjOGyFd0Wgye6Wf6IibkaxbJ3FaGSqvD6sAOvei8xqCxQo8tuTNIGn/bm3Mn/0IjEbIR6KouEhcYd4jX0yzS8QZ3WSkcZBoEDt/NfE51yFhvXJ0FK89JkK6SHdMWFjEwsc2cd4dryNX3p2mNSaZqM9kBHUr5RDgZZvuLV8Mww7CZDBpG54u6s1wvO3VV3o5/+ygGljmot1SQ3HwkoBn561jb9srMXFfA7YBOJyxCvkw9WKj4p67KO3+AdYbQ890MRBViM5/M7ZpEcQBE3mIGRsRFhbR8uyPOP+Oqygd+AVRoTnLVZ/RSFo52pIDx70W4MDKbRM3KA5j0jY87TiyPpcuSjPKma0GRWqTo8bw4Mm/DcZvwLJyGb4fp5AfQq3Uf94jX8BE/WC80UXpYtIofcGZxGdfi4T96LFaCoyDeruAwoEHOe87V9H2zE8I81ljr5mMCCYMQNDr0nTqjohJsl0aStC7utIl5r53r5ZUeW2YBkiT8sXNJlRccvEgu+f9Mk8uug4T9zaWly5MjJDXEI2xbhP+gXtp2dVN4h3eEuBYCMQh0YVvxzYtPWQh6YnC2JDEbyM3uIdzv3ctCx//fk3U49GdeDKmGieoBurmcuc4Z1VfDnDLtm0Te6avMbEjbZoZyj03wcs93z81CgKdQ4bxMVHSQqPtp3yYwD8JJ6nQ4KvvnQCSCqOTp+3Rf8QbfBp1iqOzXoxJe6UvPJt4zXokLJ9wXvoLSdMaE68JE1c45843seQXXbUCJJuJ+kxESfIFQRy56nhPPREmeqRNK+1rU3vFir3Kz4MqWW5XHTG4dpD+4nLuO+2jYKuQTrcd75VzEsFinQLewGO1numFUQqlpLc4ILrwbdiWZbWMl4n+ngXRCOsUUDGcteWdnHTfFwnzRcCOPoc+Y2oQiNKpjsu7NLVdOiehYdeEb3C6UFXZIJJ8efPOvIi5NEqXepzoo2hWo+KQiyrsXPJ6nljyZky0D20k62WiUYu6TbQ+/q/4vQ+MvtjIOGmUvuAMonPfVIvSJ6NBWirqalysm2f1//sAp277DLGfFiSNal8zpgoTVEKMcc5176+8GIZbe08kE77B6eLW2mdpWbh4ret5ZwSVQJkjfc9HjyCAY2PuOf1G+povxIl7seIx8WIz+xGStNgoeJ72x74y9mKjsEx00fXY9tOQaJATqx49GrX8eXGI/VZW3v0xTv+fG0ly+dS7H41NlDEVGNCo1OyC47zmeE8eLw0j6Ae2palAIs6lhaLJ7JajUO/xEnqt/OTMz5K4rTi2mkXqR6RWrem10PzU7RT2/zTtmT6aYiMxacVo6wrCi98BUWUSvPQ6UlsvFqL8PFb8/FOs/q/fJ3H8NK9+PItgZ0w4CiQJKHoppPUyMLHZLpM1wqacjR0dqUOl9vIorXBvmM820ai4eNEA+1rW8NMzPg02qhUcTUYEOftRcZB4kPZHvgTYWuQ7ipOfGCQcID7v17FLzkeC/kmK0lOGWvDmF7B8+99w5l3vSe0YJ5f1f5kBCDjVwRiBjq6e6iqAzgmexGoI0evStBK0+4HqGYhcGFQipEE+22ShxsOPyjyx6AruX/m/kLgvfXxix1dDIGpRr5nSs1so7bkrbQkwGiujHqUXFxKtfffoIvsTRof6qi998B84+z+vB7Uj+r9kTCPGJklcavZ9R/USgKXbJjaKagjRW1n7HBrrK4tNfk4161w0GlQc/GiQHSe/m1+c8vuY6AAqTibqL0DTSU2NaX/kS0gySLoG6SiidOMiQS/xOdeRnPJKCPrATMYE6UjSvupRYSGLHvmXWv+XKolbzKpKp5taYpkYXg3DmXkTRSMIujyWtsZFjFmXdYgdC4JiyMVV7j3tj9i5/B044XOouJmoH0a9JUDh+btpfvoOErcZRuNNi4CNUdcnfOnvgZMDa5mKQ09s2v9lweP/xprvb8AN+0i8elVp9vtOE05YBbW87LZntLhBJOnsnLj0xQnb0HTR1aVmg0hy21YtqtqXRuk6DtloHS0iCBY3Cdm26maeXPo2nHAPKiYT9RegYDzaH/0yTnggzXoZjZduXKTaR3LqLxOfcx1UD054S4CjUe//0v7Unaz5/nrc6n5irynr1Dh9SBwG6rreiuhA9WKApVdOnO0y6wW93io3KFTOM8asjMIQsvBjTKg4iCYYjfnJGX/FzpM24kT7EbW1FgGQXfakXrp1i+R6d9CyqxvrNTH6lgCAjQlf/D60ackEtdcdHcaGRIWFtO3+Ied+9zr8wT3ZAtTThygk+ZKDYF55vCePlakZUVOAYF5cas6hVmOYuEuYOYMYRGMcDfnp6pu57/RPAooTH0TFqeWqQybsCiZH285/xqvsRp0CoyrgMQ4SDmAXnUO09h1IODBlgg4gNiTML6Dlubs597vXku9/OhP16ULTm0VfCvDutcQT1SN96kbUJHHJJfVJBX05gIJmAfo4EQNq8eIKD6x4F1vO72Jf68sw0cFU2BGseLWJU8NcbJOTRuklvP5HaHmiK10mbjSCDiAOEvQTXfwOkqUXwVAa41ScJKXWqXEBTc/fw7nfvYZC3xPEfibqU45AFIKoXtS1dX+riOhE9UifkI1MF6oqImK7dmlBlI4orFnCGeNHDIjgR2Web13LXef9Kz8963OpsGuEE+3DxL0YW8HYYPRi1kioRd0SrY//C7mBnaOP0kUgCdF8O+HLP1x7UJnKAMTYgDg/j9KBHZx3x+soHniYyM889SnGhEGAcd2TnHz+XBi2jk+UWS3o1I4Etz88XUVOD4IQ5vBiFhOHpMVHcRlI2Lnk9Ww5/1/Zct6/8sCpf8yeea9hoLiaam4xicmPbmKwgUhbAuRxK8/QuvP/Z+/Nw+S6zzrfz/s7S229SmrJ+27HliU7xA5LgEROgDBMSEIcCwgXZoMELnCHYWC4wwxYAWYgM8+deZ653DskDwMDIRmiAHMnzmKHJPLuQOR4ly3J2peWutV7dy1n+b33j9+pVluW1FtVd1V3fZ7H1naquuos3/Oe78H0ieYAACAASURBVO9d6o27FiDo4KyX2jjJLT9McscHoTKGmoCVw3VqjHP95CdeZ/tXfoyukVeJc90dUV85DEhc7PJBzNvm23gxtLWgf+rZZ514W/u2UlcOVDv55w1ExUfUEiYzGE0Y7vtOXrzxV3l825/z9bv/J3vu/ivKuasRra0z+yXrn+J30Xvif5KbeCVbIF1AGiOSeagJ0Tt+Fe1uTs/0yyMYG5Hk+shNH2P7Vz5Iz9ALxPnO9KMVRAEM8p0Aw8ON8d1W8ixqOLfdc48CqMjbPS/zzxvepnSdIybr8yIESZlcPEOYTFENeyhWT9JTPoA1BaSx9RFtgKImxNTO0X/4L2Ax2UDGQ2rT2IGtRN/1yxA3av7oYnCinoY9hOVBtj38IfoGv0Wc78wpXRFUTRKDom/drert3ClpI6YYtbWg3yekAILeE8cgYNbb4/9KouK5oiPxMBZuHvwLsOV1MKP0EmTtdbtOfZnc+ItYv7QI68VHqmMkb/1HroK0Op5ZLyt5/gpiY5Kwh6B2jjsfeYC+U88QdeaUNh/Bi6oxwK35/dXrAHY1wF1oW0FXVQOin90/uUnhliR2xaLzva7D8hBNSbwiPeVDbBl/ArzSbKe/9YaQuig9Hqf/8KdZ1OUkAjZ1FaTf/68hKCJpvMLWC8xG6kEXXjTOnV99gI0nHiMudLJfmoyk1tpcPpdLYrkTGtMffdlvsFp8Kmtqk0v9WzzPH0jcOJCOoDcdJTVwzbkvEUSDpCa/Du2WOufb63adfpjC6LNYf6FeOlmfl0nSa99BdM9HoTaxSk87LlK3fgkvnmHr3/4EG498zY206yyUNgkBSMMcqJHtAN3dy9evthX0e2Z/J3fmCz5ASkfQm4sqVlyXxmvPfQkkh6yoRdCa1Nvr9h3+M9wpuIiGQmKQaIr4u34Re+Xbmt5i99JkI+2CIiatsfXrP8XAoa907JemoYgiqQWDvRvg8OHlR0ZtK+hTU9kqscrdxq0nLfAK6rBUBEvihQyMf5Oe6VewXglZaDS6hnHtdbsondlD8dzT2GCBjbvAWSxphOb7iN71W2D8hfvwDSeL1L08YhPu+MZPs+Xg/8oi9Xjdpac2HeNcNhXZCrBzpyzwpLk0bSnoqio7drgFUYVbbec8W1GuPfcF0DibwNPZ+aAuxTOt0Hf4067vuXgLF0DjI9VxkpveTfwd/wSqYyvWvOvNOBvJejkAbv/GP+aK/X/lRF2ThX+nDvOjSJJYVPXq//XazFXzbb4Q2lLQARER/fJBzSHclHa6gTYd0ZTEFOguH+eKscezxdCOy1VHNMUGPZTOPp5F6V2wmCfobLpR9D2/gt1yN1KbWnVRVxOixuP2R3+Wq179H5mopx1RbxySJjGe52+IU7l2vo0XQlsK+uczFakl1SvVcnWSdDJcmo5aUk+4avRvCWunsRJ2/PM3kI2msxH9h/988T3HxUBSQ4ubiHb8tova7WreMM+LujUBtz32Ma5++b8TFbIb+arZQmsMIc3lfYzKW+bbdCG0paAPPJqd5Qk3+EFQSpMYOj1cmodarAnw04SrRx4G8Ro82nYtIFmU3k1x6CmKQ0+6UXWLGfvmBS43/eYfIH7bP0WqYzR/utHlqIt6gPXz3PbEL3HtC39ElC8B2hH15SNY1HN1e7fNt/FCaEtBn8Xzrs0XDUBCZxpD0xCU1OTon36ZDVPPo6aAdB67L44Y0IS+I592KX+L8dLBvT6aJnrHr5Je+bZsZN1KFxzNJRN18UiDErc89avc8O3/RJIrAtIR9eUis+kcN1x+w4XRloL+GI8CYDW9Oav0X9mWdesQa+Cqkb/FxONYE7J+c88vj2uv20Vx+GmKZx9zGS+LyQQSg6QRmu+l9p7fBT8PaczqpDLWEZfJI4Yk7OGmv/tNbvz7f0cS5nGivojv1+GNqErq6t2vn2/ThdCWgr51xw4FELg5+6vVCl/WAYoVn1xc5srRr4Pp5J5fHnXiaxP6jn4GsbXF2ybGRyrjpNe/k+i7fhmpTWQZRauLqAUR4lw/N+z9HW5+5rdIw3z2FNK5wS8NwQk61z60V4vzbDwvq3+WLIEHZtMH5FprQTt2S9MQdbnnGyefpXdmH9YrdnLP56E+ULo4/AzFoSey6tFFCl6Wyhh/1y+R3PhuZHYO6SJuDE1A1F1wcX4j1z3/CW558tdI/ZyrcO2cF4tHkNQldWxIStXN820+H20n6NlQC/3TPUfyKJvThM5Qi6aiqMDVI4+ArWal6asrKq2Pgjgrou/IXyw+4wWY7fVifGrv+T20uCmbQ7qa1otDsgXROL+Ja176L7zlsV9CvRA1AbKYReAOAGKdiHVjdf0Jep1S76ZuRDensUXb+Hu0NGqxJkc+mmDz+FNg8lkjrkWK07ojy3jxuygOf9NF6YvNeAFcm90p7JZtRN//f0Jcbpm1f0ERtcSFAa589VPcvuefgZjZKtMOC0YUTQvFELVmXQq6O6O9YAMi/WmaIB2FaQpCSmJ8Nk0+S1flEHZdN+JaArMZL59ZWsYLZH76GPHdP02y9X6kWp9wtMj3aQqK2IS4MMCWA5/mjq/9DKIxqV/s9H9ZOIJFjQcYrplv4/loO0GvFxV5gW7xvMCoaifDpSkoYFDgytE9c+yWDgtFstmjxeGnKQ4/tYipRnOQrNGXTajt+G20/yYkmmblhkvPj9iEqLCZgcOf586v/jh+PEkadNrvLhipl3XIlfNsOS9tJ+gDmXir1QE/MHRCxiahSmpCCtG4s1s6nRWXgOvxgo3pPfo/zvd4Wex+FA+JZtCea6m9+3cAzSL91rl8jY2JCpvZcPxhtj38IcLyWZKwI+oLJEtiWoceenc9Glcz4Lsnz46gNwFXTOSzYfoFuiqvYxc62b7DG3D90rspDT1BceTvFjfVaC71KtLb3kf89v89s15Wq9fLxXGiPkDPmafZ/pUPUJg8RpLrjLS7PJmcKQgMzLPxvLSdoNcR0QFj6pZkx3FpPK6AbcvYE5BWXM/vxUaWHXBRuoE0clH6cmrgxCC1SaLv/VWS678/aw2w+qmMczE2Is5vpDT6Itu//H5KI68Sd3qqXwYnYNb1PNs439bz0XaCPjV79soGzbLDWumEXhu4QRZhUsmyWzp2y9JxGS8adFE6+/j5qUZLyQQRAzZGvTy1H/h9tLARWiSV8TxupF2c20B+6jDbv/x++k49M2ekXec8ughiLajQO9+G89F2gj5cv6WJ9KqFlsnjWkOIWlIT0jezj57yAdQrdIqJlombajRD79HPuQBdZh8vF0c2ts5ecZfryphUWXLE3zSyOaVhD2F1iG2PfCibftTlUhqX8r3XNpLNQ+meZ7t5aTtBf6B+ixft7eS3NAm1WANbxp9C0imstNZjfVuiivolSme+QX7sJeelL3X5x/hIeZT4ro+Q3PVTUBnJUhlbCTf9KA26MGmNO77+v3Hlvs8SFbI+8R1Rn4tYq4hqz3wbzkfbCTp1ZbHal50THUlvKIoaHz+1bB5/EsTPEok6u3k5uGTjEBON0XNst4vQl0rWkY6kQu1dv4XdchdSm1x8z5imc36knYrh9sc+ynXP/d+uU6PAolM41y5irQWRddbLRc934Vbo6tzkG49oSmrydFWO0DvzGph8J5pqEM5L76Z78BHCyQPLyxwyHpLU0OJGaj/4B1lXxmR5N4qmkK0hGJ80KHHzM7/OzU//W1Iv32kVMBdnNyz74C37DVYSBUSk7qHnOpZLM1BSAxunniOIh7ESdBZEG0YWpddG6D3x16iXX7qgw2wVaXr991H7/t+A2mRLdGW8GKIpipDkNnDd8/+B2x/9OVDNqko7og5AA3pStebRn4ddqgYIO4Fjo1HAQxQGJp4BTVtWINqTLFr1inSd/DLh9BHULy7Peqi3Brj3o641QHm0Bf10cGpV7/+ymSv2/xnbvvph/GiMJCyt+1x1dcViy77Ylv0GK8nHs3j8XUcJgTArmFv2Xa1Dhrp0xXw0wcbJ50BCWsuTXQso6uXwK6foPvkQ1lumpSXiXp8m1N7zO9hNtyPRFEuqSF0RFLExcWEzG058lbu+9D6K44c6ueoNWg9sK0GvM1we9gFvOddBhzdTrw7tKe+nq3okS1dchiXQ4dKYHD0nv0BQOYN6uWVaLx6SlNGuK6n94O+7YiOb0MqXt9iYKL+J0siLbP/yP6T/1NOdtMYG0LpH/CI8mP0aTXmGBtzNOlyIYg1smnwW0hms+B3/vAm41rpFgqmDdJ1+GOsVWXIKYx3jWgOkN72H6B2/5vx000oFR2/G2Jg010euPMi2h3+MK1/7HFGhPoB6GTZUm5EV/6MN0LS2EvQ6pZwx0qafvZVRDMbCxsm9nN+9HUFvGiag58Tf4MUTronXcve1OD89+q5fJH3L+5BK3U9f5vs2EbERqV8CTXnLnp/lhm/9R9KwsK4yYOpHZ9lqTpuJ4uc/775zHBqjgtGOgd44VLEmpBAN0zfzCm6YRUpjTrMOF+Ki9BK58VcoDT2O9bvBLjMqFXHWjVpq7/l3aP+NWavdBtwsmoa4BmYmJA1K3PT3/5bbHvtllwETlNaJr671IH3ZF1tbCTp8HoBiqq4Nuiz7+3fIEFJS49E3s49CbRBrwo7d0nQEUHqO/RXG1ljSAIwLMR4Sz2D7rqP2A39AfRRea1/qMttaIs5v5Kp9n2T7wz9GbuYUcS7rAbPc/dLCzH6zLCV7ObTyUX4TDzzwgAKUI2tFse5y6NAoVGDj5LfBVjrpiitAfQBGYeRbFEa+tbQBGBfDBEhljOTW9xJ99z/PBky3tp8OZGmNKVFhM32nvsFdX/xh+gb/zi2Warq8heMWxuCEXBugZm151ea6+i0ia/PorgqK4uFZ2DD1POAt/9mvwwJwAzAkLdNz/G9cFCqGhoQpYpDqBNF3/3OSW96LVOr90xvw3k3G2Jg4v5H81DG2feUDXPnqZ4nzJbdvlmtLtSD6pt8snbYS9I9nv07UzloF21GdxiBqsSYkHw3RUz4IJlzTj7gtRRall84+Sm7ytawdQAP2fV38jHGtdnuvQeJKC+envxFjIzfGThNuf/TnuPmZB7EmwPqFNeqrC9IAj7OtBL2u6Hl/SyxC3NHzRqGkxtBdPkwhOtPymRFrCSFFTQ5TG6H71BdRL2yctWA8pDaN3XAztff8O2fntNjouktTXywNSMIernvu99n2yIcJK2fO++prifqy6DJphyM7y4MPui+8806JVIlFaMhdrYPzz/tnXoZ0upN/vqJk7QD8Il2nvkJQGVx+odFcvACpjJLc/n6it/8CVMfawk93iCtsU3WVpce/wt0PvZf+U0+6NryaNmbNoXVY9kXXVoI+F4FaJ8mlEehs/vmGqReyv+vs2JVFUS9PMHOMrtNfXfrc0UshBqlOEn/vr5He8C6kOk6rja67HIJrF5DkN5KfOsr2hz/ItS/8EUlYRL3cmojWs75cyz4gbSXorm3FbAvdCp00l+WjoOITJNP0lPeDtGJjp/WAgvh0n/wCXjzpbK9GiboYsAnqhc5PLw604Oi6+REbkQbdKIZbnvoX3PGNj+FFk3MsmDYWg/VouYDox8+Hj5MiIA3YCesbxZqAUu00perJOQVFHVYSUUX9IvnxlykMP4M2Oko3HlKbwm7eRu2+B7PRddBeT2N1X90jyW3giv1/yt0P/TB9p58hyne59YE2zYIR5x0v+1GjzQQdtmbVooiMi+mo+XIRXEJ/d/kgXjLe8c9XDUXFA1uj5+QXnDfcqBTGOp7v/PRtP0F8989AZTRLZWwvRC2iCVFhM8XxfWz/yvu57vk/JA0K2KD9smAU1BgPgcn5tp2PthP0gYH6w4lOOA99+dVV6xtFBVfub+OsoKizS1cDtzjaRXH4aXKT+xuXwjiLe6QlLhO9699gr3grUpug9UbXLYz6IGpEuOXpf8nWr/0M4cwZ4ny9a2MDn3CaiIAap8RT82w6L20n6Ae668+IMm7ELem112Nja6EYPAt90/ugE52vMucnGnWd+nJjUxjriIekNTTfT+0HPwFBEdKYBkw/WwUEsQmKIc5vZPOh3bz1oR9g4NAXiPOlrMFXW0Tr6twGXX+C3l+oLwfruc6i6DJRV6kYxhP0VA5lBUWdgdCrhzirxS/QPfgIfnWosSmMdYyP1MZJr3sHte/7V1CbalNBd9RbBsT5TYQzp9j6tZ/itsf/JSYpz+kF0+B92EBUUc8DQcbm23Y+2u4ojlWchKvquTQBkc666FIRLKkJKNZOkovPuTL0+V7UoakIivXyBNNHKJ15NEthbMJCnzg/Pb7n50hv+4dQGctSGdsXsRHWL5IGXVz98h9y9xfP56yr8Vu2Ha9IvTRAR+bbdj7aTtBvm8rU28hw7J6m2u47tA4Wa6C7cgQvaVBP7g4NwN1Wu099CZNWwAQN9tJhdnSdKrV3fxztuQaSSltH6i4LJs3mlg5QGn2Z7V/5ILc8/duYpEqcK2XeehNukMtAFVEFVIbm23Y+2u7oDQ87xQmMGUrjBKCT67JknHD0lA+4k7xTqdUSiFrUK1IY/Ta5sZfc4uhyJxpdDOMh8TR2w63U3vVvIVk7g5pdznoPagzXPfcH3P3F97Lx+Nedt95ixUhCtnRl5Ox8285H2wn6vgecetfSdMjatGaMB51MlyXgKkRFcQ256NwWWwd1C3rxJN2DX3XpjM3CZK0B7nyAZPtPzply1O5kOesY4sJmSqMvse2R+7n1iV/Dq00Q57ucr94K0Xr2sIRycr5N56PtBP3Buu5UKhPAkOf70JTwZW0j9QXRZIZS9RhI0PHPWwoLXoHSma8TVM+izeyAKUBSpfauf0M6sBWJptqo38vlcW0DXIWp9fJc89J/4a0P/SBbDv41aVAg9YurneKogBdHoGpPz7fxfLSdoNddgQfu6Z9UGPad7dukM30to1jjE8ZjFGtnQPzmCUaHRSNqsX6BYPooxaEn3CDpZkWT4iFxBS1tIbrv4yAGadOKy4vjonWAuLCZwuTr3PH1n+HOr/4kXaMvr2qKY1ZUJFGtFnnWnJtv+/loO0EHUVU14sY1nfF8XLpGh0WiqAil2imCZLKzINqqiNB96svZiLomXq5egFTHSG55L/E9H4XqeNsMxFgYLsdZbEzql0jCXjYd+f+4+6Ef4sa//z2X4pjZMC4bZmW+t6Dq+T4iTNpiuP48dIDPZ6t5IhzJ/KeOW7AErECpegJJp1HxOkVFLYZoinpF8qPfJjexL0thbGLqnRgkmiL6nl/BXnUvUpt0GTZrDJcJk5LkNyA24oa9v8PdD/0QWw7+NdYvkIQlsHVhbzIq6rlRskPJzay/tEWAgUczAbccgk5yxtIQRKGrchQ07cwQbVHU+Jh4gtKZr2cdGOd7xTIQA2mE5nup7fgt8EKwCazReElsjJrApTiOvcodX/8Ztj18P72D3yTJFUnCUvP99dkcdI7tFFm2z9XWV7EYOZImoNCezShWEcV1YO6qHO7cEVsdE1I68yh+baQ57QDmYnykOk56433Eb/tZqE5kirMWLy83QENsQho4G2bD8a+w/cvv4/Y9v0BpdB9xvoT18k3NX/cyQZ9nswXRloL+GI+63yTJicpMzRpjjK7NM65JKIjBSyOKtdO0W1/s9YTLSS+QmzpAYWQv6hVo+qkuBqlNEX33/4G94m6kNuUWzZv9c1eR8zZMPxjDla/9CXc/9F5ueepfk5865oTdLzRD2MVasNYenm/DhdCWgr51eIcCVKL0GOio7wed+v/FoGDFJ0wmyMfnQAI36qtDC1JvqxtRGvwqK3Ka162XQj/RO3/T/VktbSoXi0JsnOWub8KkVa594T/x1ofew03f/B3yU8czYS82StgVMEkCxjevzrfxQmjLI1QvLvrIPd0jqhz1XAuKFTjT1wpOJMJknHx0DpXOUOhWpr44Whx+hqB8EjU5mp5iajykOkFy8w8R3/WRLOtlPTzJSZa7nqDiERc24dfGuf7bv8fdX3gPNz/z2+Snjs4KO5pm4r604yFiTK1cTRIr6zdC3wW6e7d6iCjCIW9tPw02HMH1QC/UBjG23MlwaXks6uXwK4MUh5+ZFZLmkq2rpFWi7/kXaP9NSFymqamTLUZ9lqn1QuLCZoLaKNc99wne+oX3cOuTv0Fp9BXSsEiSK4GQdXVc+HWkoH4QgMhgVxguu0oU2lTQEdGxm2Y/+6soa3UhvknobMoiNlpXF2l7kp3cIpQGv47MHrOFi8eSMB4SldHe64i+51cgqbH+LrT6wmmM9XKzEfs1L/5n7n7oh3jLnl+g79RTWC9PnO9CjTcnM+byx0dAnbugx37kVpmcMy95ybTtlXxP9qtgn88yXdr2u6wkCqCutLZYGwRN0KzookPrUl8cLYx9m9zkwSxKX4F1Dy9AquPE23aS3vwDUJ2ANVVwtHDqGTE2S3UUG3Hla3/C9q+8n20Pf4gtBz6PF5dnF1BdN8tLPUkJgPUDUOR5gEddtt6yaFsRnMra6NrU31+t1GrGmBUIWdofV5FlMAr56CydDJd2wTXsMrVRikNPNLe3y4WoBeMTfe+vQ64b0mhdnzd1K8Z57AOo8dlw4hHu+MY/5u4vvJsbvvUHFMdec71iwuIljpOCzuYivATQ/ezyH3/aVtB37CAFKBbCI8ApPwjcLuowL4oT9EJ0Bmb982WfSx2ajoAYSkOPY5IZFymvhKgbD6lNkl79duK7PoLUJjuFaLOLpzGKkIS9JGEPxclD3PitB7n7oR9k2yM/zsajj7gWCm+K1BUEr1pJkdS+BHD4nuW3MGnboyLierr8yK1SQ3k5CEF0+Ttk7aOoGDxboxANAd7KiEKHZTObkz7xCuHUQayXZ+UajQokFeK3/zy2/yYkbvdhGI2jPgJP1JL6BeLCJsTGbNm/m+LYPqK8D5hZC0bUglob+J6kSTRMUDgA8EADDmZbH5FPPes8JzHyLWOyh5hOpHlZXNtcjzAeJ0gms0fnjqC3B/Uh0mOUhp/OWgGs0LEzHhKXsb3XE739F7LpRp21lwtxPrsrUipvvBXP62bg5LN4SZnUz5MGxXrb3tTr8rEmfOVDd8iIqkrWcHBZtPUQwcGpRxVARL8VuwV4r3OCzYdixSNMxgjSqXXthbYnCiagePZxxm76Ryt7/MRHahMk236c4JXPY8487zz1NdVqd/moCCaNqPbdSaF8lq6Df0VU2MhU31uoFQZABBVDd20DZiZ6IXuZAZa9I9ta0HlshwVII/uKtbUp3/O7kzSx0uZPHs3F5aAHyRR+OpMNhu7cBNsFV2RUID+xj9zkfqp925yfvhLCLgI2cRWkb/8F8l/4aPaE0InUzyOuRW9uI7X+O1ExJEERP5pmw5lvun0oKBbp7u4ijIvPATz66McbYi20tfDtetCdRfffXTwJ8kqY96ABd7m1jRP0MBkDG6HtfQqsS9T4SDxJ8dw3V6ZqdC7iFkiTW3+Y9IZ3Qm0S1kUF6cJQcYJe7d9GGvYitoYA1vjObvHyWJNXgrw/Fpl0qv+G5wB47PLvu1Da+2oW0d2qHoCqftPvVLAvABcI5ONzdHZWu6IgHsXhpzFJ2QnqSom6CKQJ+AXie38evKBjucwirnNj2Ee1f5srAMskVrIcRVelrTYXeFjxD33juve/BrDjwQeXvSAK7S7owECmUCLydBKR+egdpZqPXDQCaum0zm1DVFEvR27iVYLpw1ivQAMSJBaOFzgv/cYdpDfsgGgqi9LX92XnovOIav920lyfqxi92PWlEAQ+avxv7bpTIt39gCcN8j3bXtDrnXQ11WcrM7Wy7/lGVyxcaV9y8QhgG3MWdVhRhDlFRqN7V7bIqI5aEI/4bf8MTADWUn/6W49o3TsPerPo/DKDQRSxGFK/+BTAs2M/YGD5GS6wBgT9scdcaHL/XfnDKvpikPMQZAXDlXbCLWCJQphMZH+3fi/C9sYVRheHn8l6u6xwhGw8JJoiuf6dpDfel3np7Z1jsSwy77zWfydpfqNr1HXRp19RI+pNVpO02rXlcYCp225r2IFre0HftUvsJ/eqG3yo8ri/PttMLJh6lWiQTlMXhQ7tiAUvT278ZfzK4MrmpAMgLkr3Q9de1wtX9se3FM47t0E31Q3bnZhfClXNBz7WBK9+3w+//xWAHTt2NGwRou0FfS4i7IkiUFlb36thqLocWRvjJ1N0Kv3aF1GLNa6lbn78FdTLseI3ZzFINE16/TvRTbfiVYZRL0TFYz3NbZ/1zvvuIMlvyqLzi19bKqRhLiQ1+ccBdM8uvxEFRXXWxBU9+EWXqhim1b+LKtWzQRAYVnSVqJ0wGI1dURGyji67tYY60bAxxXN/h4uY53tNgxHjMl5yJabv+SUq3Tfh18bxa2MYG6NiUOO7iUtr9kwTRFPSoIfqxrchNuVy39WomigV4qDrqwCP8q5LbrsU1oSg79oldreq9767+sYUeTJXMNDJR38TAqgYjI0JOhF6m5NZHl6O/OizmHjCNYFaYVVX42Giacq338/z9z/Nvvd8mqFbf5I4vwE/miSojGCSMiqCmiAT97WDikGSKnH3jdiwF7EReonGr4qkgW+86ciOjG668WlorN0C7V4pOofz6Yv6ZZT7qY+17zAHtyhqbBXPVlgj9/N1i2BRkyecOUY4dYhq/91IMs2KVI1mCGAxlOw0Xn4DZ27+IMM3f5D8xHF6zzxN/6mv03vmaXJTxzG2hvVyWK+Q3XwAFLRu0KzszWi5zGa2hD2MX/PDaNBFWB3BJAmpn3/TnF5B03wu702n4VM/8s53DusujEhjEzjWjKA/llksicee6alaxfO9QpqmnTYAF6AIvlYxmqVVrd+VrDWBi5DHyY+9QGXjvdTTCVcSBYwRckTUqjGeEWrd13Gm7zrOvuUnyE0N0n3uOXoHn6T3zNMUJg7g18bca02I9UIn8PXPrQpZEc75n9CC0Zl4+NE4g7f84tI/MgAAIABJREFUOAe/8zcJKyOE1VE2n/gGxaljpH7BRfBqs2+gRo2HpfQwAO/aZWBXR9AvxoPAg7t3e3J74cj/fLm8t1DMff/0ZJrSWSB9IyJ4aSbobV5UpLah10JbouJuyvmRZ+HGn0ZVspzw5lCXWMHprhiZPY88wWXbiMXEZbzYouIRFbcwfOOPMHzTj+DXqhQmX6d7+Fl6znyTrnPPkZ8+jh9NOrtCfNQEWC+Xibwway9hs2ztVghCBNGEOOzj9B0/BwKpX2K6byOVrmvYdPoJNgw+g5dGLlq31npG/IlKXJ0ZuOJrMFtC01DaTtAVhF0qbEUYeFQY3qGyU9K5jy6ThcJ/L8L3izNdWvT2vjoo4NkqRmM6Dy9rAFVUQnITr+JXh0kD1z+kGVG66vmLSQFVRVNFPAMCsbp/UQSMh2ZF2yat4SXq/s34TG/cxtTmbZy+4x8RVCfJTx2nNLaPrnPPUxp7hdzUcXLlQfxoPCvQqUfyASoukp9/wMbFRV8UdF5VmEcu1IIYwspZTt/xs0xuvpugNoOKh5dUUPE4e90PMd17C1uOPUxx+iRpULD5fM5U09w33/VDP3oQYMeOB1PYdfmftUjaRtB11y7D+97ncfiwlZ3ypoUE/cwT/VGheEU4Ndx9/PD+nueuvB6M8dGOp/AGxAm62M4s0bWAoKgX4pdPE069TnngHYitzveyJSECapXUWlQVEcEPAkIPJmJDOfUxb9JCF8GfH3+seHEZiSxgsH6R6U1O4HnLTkyiBLURctMnKUy8TnHiILmp4+SnjpGbcZG8F0/jJZU5P0MB40Q++09FcAFL/WfXP4Ccr8nMpEHI7lTUrR4Lms2H09TtY+rvoajJkfpFKt03cnrrz2c3ifqTiiBYvKTCTO9NHLvjHzNw6jH6z/4dPimRX3wI4JXdu0IRiWgwLS/ouksNVz7rycfujdnl/CbdvbsA12xH07eDfCfo7SA3hkmln1Kff93kOEf7NunZrh4JrBVtc2uhkdQjdNHYlYx3aHPcwBIvnSQ3sY+Zzd833wsWhaprpOF+VTzPo1QqEIQBqjAxNsFE6nNWe7DKRQT9QiSLsN0ThNgYP63hInsDxpCE/UQDm5jc/FanyRa8JMGPJggqQ4TlIcLKGcKZQYLKMGF1GL82ih9NYZIyXjKDF89g0hqzE4Kw2a9znzFcpK9iUAQ1PtYvknoFrF8gDUqkQTdJrp84v5E4v4GoeAVxYQtxbgO10lXEhQG8uHrBE5ETdz8pY43P2Rv/gc703+qXTz0Zx17pSwBb2drQ7JY6LSvoumuPz1ZnpwBWdz9dgOTdqHwAlfsw3EKxh9nub3EEaYq1qZok5qqJMRns6p3vx6wzXJxhbAya0kkEWiu4yDA//lJmUcxnR1ycWeHOIlYRMMYQhh5h6CPiMTVV5tDrJ3jt1aO8/NLr/P1T3+be9/0oP/pPfwImyuAt0urJBNWR/VyN8Kwisw/XghqPJOwlzm9keuMdqOEN3U8kBS+tIWmESWsYW0NsjKSx+30aYWyCy53IIm3xzls5Jsh+n3MefvZ764fonN2p4n6uWBBrMWnEpdaiVDwEi0SV1F59i3+i+7q/vX9rbv/u3epdzGVoBC0n6Lp7t8e+AZFd9yUA+pdP3Qz2n2DtT5Iv3oQfQBJDrQYzU4nbtWrInq8EBDFcOTlOfktMakxHtC5A9I0ndod2xzXrCicP4EVjWL/oClwW8GSqqlhV1GYWiu8RhB6B76EK5XKNEydHOXhwkL3ffJZXXjrA8WNnGB+fQhVqlTL5jd/iH3zkAYznzVoxS0PcKZldsXrB24hNEBvhqXL+vHU3s9lIO4us6zUWF77H7Cl/wakvZH9WnbVcUIsXV4C5N5c5N5m6xXNZBIzgpSDI5wAGBponSS0j6ArCJ/f6svPeGEB3f3Mrmv5L0I/Q1ZunVoVazVKr1kuxDOBfKEgCqDGUahUGZqY42buBME3o2C4OFdyCqGYX/AW5sh3aDzc8Ok9QPkUwc5xq/12ILcNFdGOuhQLgeYZiPnDtXFWZnq5y7NgYhw6dZd++U7z++hlOnR7n3NAQ5069ShD6hGFAV1cBz/OISzlOHTrC2ZOnuOK6a6lVKshio/SFIoKzSS7yb+oGNaMppq4JS1k+y3RitnWB1G8YS9aP1A9Cf3q6Ourb9BE431CwGbSEoOuePT47dqQiEutnv7YFk/84Gv8sXb0e5WmYmowBL3MIgvneD5xQXTMxysneDfNtvO4wNobs8bbDWiDz0eNpN5Zu4z0IFsVgrc6Kt4gTcN/3CUMnujMzNY4ePcfrh87w6munOXjwDKdOjTI5WSFJLL4vFAoF8jno7SsBBlWLtYq1CcZ4jI+McOjlV7nmluuozl2rXEnq6Y3MOa2XrMGNQxWbL4qXTpgvfWB74ezu3bu9nTsbW0w0l1UXdP3k3kDuy6Lyv3zyY8Dv093Tz8w0TE9GgI8sRMTnomA8rpgapyuqUg5CfGuXc5ddOygYdYvrdT+wfbnguXndknkImpKb3I+1Fk0sGIvve4Shh+87O2RmpsaJE+d4/dBZXn31FAcODHLq9BiTkxVSa/E9jyDwKJVyGCOoVVQMUbVMEicY742XohiDTS2vPfs873z/e5dht6xJVAQ/qkKSJv8DYOymBwxNbEuyaoKuqsKnPuXLx+6NdffTV6Ppf6PU/V6qlbkR+ZLSMAS3J8OoxlWT4+wfuAK/icUW7YM4S0+T+p86rAkEsKgJCScPUPATcv09sxbKkSOjHDp0llf3n+bggUFOnhpjcrJMapUw8AgCn1Iph4hkLoVmEXh2s5SUJK64IqILbqBqLWE+x6GX9jExOkGhWCRN046wO2yYz3lRtfbaaFT8GsBH7yH92HyvWgarIui6Sw0fB9n1sVj/8on3ofbTlHr6mJlKUMziI/I3oyIIwjXjIxzauLkTndfR2f+1JXVbtHM4L0CzhdHyCU4ffI1Xjqfs33eEg68Pc/r0XAvFkMsFdHXlMwF3lowT7wvPCwUxaJqQJufnY87FWkuYyzF06jTH97/O9u+5h/JU3DwfvZ1QNAyhVtXPfexeiffu1UBELtMsffmsuKDr7t2zKTv6uSf/NWHu32MtzExFQNiosNGoguexaWaKjTPTDHd1E6RpR9jhTU2D2gUBqoliBHJBg4YwrhHc8GEfP53gj//Tn/LIaxvoDqpgnF9ej8CB2ejbZaRc5k0VRIQkqWHT+OJRtyrG84iqVfY/9wJv/b57Zj37dY6KMf7URC3yRf4C4PDh5i2G1llRQXdivrMu5v+Vrp6fZ3pScZ7SkuyVy2FFMGnC9WPnGOrumW/zdYBmPkv7XXDqgkXiVEmtE3T3D3S8owyL4Hkx13ZNkC9eRW9RiFNno1wsAl9QbCNCEldRmyLmIlF3FuV7vs+B51+iWkkakL7Y/igkpe4gmJ6oPfSBO/Ov71b1dkpzcs/nMl8SZcN4o5g/8Vm6+36e6ckk++em3FhE3eLo1ZOjdNWqpMacf2Zfr6iL5rLfth1WoRIrtr4OON8L1hGqgCi3bpzEWiVJ7BuyXBZNpsdJVEFduH7RzVSVIAw5dfgoQydPE+Zz671xmgJeEoOV9L8B7Ht0ZcKOFRF03bXLzInM/4Ke/p9kajwCmjrKZO7i6LXjIyTGa94Pawvq317f8Kd2QtVF6bVYV+bkbTdUuL5nkryfYtWwPGNKULVuQfQyZ4uq4gU+k6PjHNm3nyCUpd9E1gZJoZgz1XLthVc+X3wE4MEdzctsmUvTrwkFYetW96D/uSf+kO7en2JiPMblk6+Mpojh+rFz5JIYK7Luo/S6FLbTXqgfttQCCOVI2+rzrwTuIjNc3T1DdxiRWFmYrXIpRM4viMrlH4eMGGyacvCFl10zQjHrU9Tdd3ZrwoZP1YfYN3Ju6OVouqC76s+dqf7lk79OV+8vMjWRgK6YmAugxtBTmeHKyXFibz1H6epsinpjpHm2bkWsKp5ANVai1C2QrsiV0gaIAFbYVKjSm4tIdDltL1ynnzSpYdMIEcPl9rQCXuBz+JVXmZ6YwQv8dRk4qYj1g9CfmaoNmlruswD9K7AYWqepgq6f3BvIx+6N9XOPv5cw/A/MTLqWassKGxZPfQjAjWNDeNayniaSvxGnftqcJYumcz5Cz7z0Wpalsf5045KoFUphzBVdZVK7zPN8dkG03vfn0miWvnjm+EkGj56Y7ca4DknzRQH0z37sO2T8k3s12NmkRlwXo2mCrrt3e/Kxe2P9m6c2g/m0+0tdlQlCRhX1fDZPTbB5epLEM3Oa7awnXIRuswi93faA1SzoExeNVmIlsfO6AesGQUnUYIKYK0tlEntBS8LFkL3s/ILoPJtnmS7lqWkOv/Iqvg/rzhQTrOd5wdR4bSaB/wqukGi+lzWS5onrvn3uaEb6KUrdA8RxBLJqoaGKgLXcMnJ2vk3XPLOWS5tcb5mGk1qd/b0AsYVK5GyX9aYdF2N2ecgoW0pl95cX7WS1AOSCBdF59+/5nPbXX3yFNGX9pS0qSanbB+HPd95ZOL5nj/qNHgI9H00R2FmrZfcTP02h9AHX5rbxeeaLwRUa+Vw1Oc7GmWlGSl3rttBIZcWWMBqDAuZ8hF4/ZAKUI0sp5620i9fCOPEdKFYwy7pjC5rGpHEN5vHP69tbawlyIUf3H2RybH21AVCwnjHh5Hg19TB/CDC8Y96d1nAaHqHPWi2feaIflU8QN7XSdVFYEUgTbh05s259dFFITYibsFKPd9sDa98oKyIQJW6BtGO7OBRAYHOpsvR9oooYQxJfpkL0Iqh1+ejnBs9w+vAxglywnvLR02JXgKj5zAfvzO3bvVu9nazcYmidhgs6AwPu6PvmN+juvZI4ch0TW4B6odE146NsLE+5jJd15aW7Q2PnCHo7ffv0gmNVd1pmarpE5Vp7CIAKGwtVApOiS7VcgCSuoDr/guh5XBuAWrnCoZf34Qesl9RFNSLB9GTNWuX/Ahh4AGGFUhXn0lBB111q5L77Ev3M168H/WVmpqCFUioEsMYgScKt586u2yjdSgjis7yik5UnvSDeUcAI1JIshRHWa2bFHBSs0BXGFPwUqwuX41myFyRR+fLbvQln4htjeP3FV4gjELP289EVklJ3COhnP7w99+KePerfJ5KwCjRU0LnyWbfa5uX/BV09RVIbr0ZWy+UwquB7XDc+wqZ1GKULznJR8dpH/TKBuVDQ61jNovRFK9faw6VxCsUgJvRS7JJ2iqA2JYmr9Tec7wWzKIofBpw8dITxcyMEYYjahb++DalH56kl+QOA4eFF7LAG0zCxnfXOP/vNLQg/TWUG5A2jsFsGi4E04S1Dg6u351cLdZaLUo/Ql3LBryyCu/dcqAv1Ty7isl3ipFNoVLdcSkGSlf8Li0tnUkQMNlsQXfQYcQU/CBgdGmbw6HGC0MtsmzVL3NUbovDHH76z+5Vde9RfybzzC2mYoDN2k3svP/0pSl0bSNOEN8zLbh0MCp7P1ROjXDE1QeT56yZKdxF6AWt8VmHNZslYdR0D58pL/YgJLnqfifS8sb5OERRUKPgJoZcu/iFMoV5QZG3CYtOHVM/76EdfPYBr0Li492gbhNTz/HBqrFYOPP0EwNYdq3v2NURwddcuIx9zY+Sw9qdIV8U+WhQ2y0u/fXgQo3bJ6bpthyqJV3A++qKv9pWn/gxhLxKhz0UEypGSLGzY/ZpGAd9YPNElrxOli14QPU99/x/e9xpJDMZboz66YgtdHgj/z/tvLxz55N69wUq0yL0cDRF0tj7onvT+8snvxvPelk2Kbcx7NwlXPeqxeXKMaybG1k2ULqiL0CUAbOurX6botl5UdImPKwJpCjM162yXtX8oL072hOKJ4hvr8vbne81cMn8rjrKCokW92KGK89EPHmZqbBzPX3t9XRSsH4TB9Hh1CBN9AuCj99yzqmIOjRLdgUezw67vo9gNSkyj3rupuI99x9lThEniovY1jQAWa0JSr0A7eROpvXyEDk7UZyIlzqL09vl2DURBEYwoobcUS62+IFpZ8k6s93U5N3iGM8dOEgT+Ut6m1UnzBUFEfvdDd/SMZB0Vl7LDG0pDRFfuu68+dfgHSWOQ9jAwBMUan97yFDeNDhGv8ShdAVHFik/iFaGNFqtSZV5xuTBKn2/7tYyylKRUtyCaphFpEmUFRUt4F1U8z6NarnD01f14PmvNcokLxVwwPVl76YWtuf8X4KP30BI+87IFXXe5hU/9zBM3gdxFtQq0ZnbLxRAUjMftQ4N01yokZq037lKsBMSmBLRPYVF6kYTqi0UNnSh91nUhtUu4vLMFUU0TluS3AHN9niOvHcDaJb9TK6KApwqpTX9zl6xsv/P5WMIRv4B67rkv95Iv5tE0pY2On+CKjXK1KncMnXZj6tYqIgjWCbrf0xYRej1IvFQO+oXUo/Tpml1sCvXaQCDzXUh1kUmH2b5KajNcbuTcvIhgrRKEAScOHmJmcgbP99dElK6QlLpzplat/c0D20tfVFXTKtE5NELQZ5G34fvA6vtIi0VUwfe5cWSILVMTRGu42EjUYo04QWdpWQwrjYs2L/73F0PEFRrN5qWvzUN5cTIdjq0hTg0ii3gKE4FFdVi8NGotfhhybvAsw6cGCXJrocBI1TNeMDNVq3nKbwB8HqRVonNohKAP1ld2dTtpCtqaueeXwwVyAtay/cwJPNU12oXRfVMViPye7IJtmXPxkriUxYUn4Im410xVs0f/hb5wDaAIiFKOA2rpYrtQCjZNsgrRhXRYvDye51GenOLE64ezvi5tF+u9AUWSUrePqv7eB+7Mv/7JvbrqaYoXsmzxlV1idfduD7gha4I830taEkGxns/GqQluPXdmzacxRn5/ZsG0PvPloF8MIy4vvRavryhdwQl64hOlxhXRLeS7qyImKyhaRIfFyyKCVcuRffvdZ2jEe64ecaGYCybHay++9Ff5fw+tsxA6l2ULOgDJdZtANmITaON4qL5AuvXsKXqrZRKzdq2XyO8FTEsrneJOJqvqFtYuOLPmO9EUmKyqW6Obb+O1ggJGmYl8qomf9URf6JcX12GxUS1vs2yXEwcPUSnHeJ7Xrj66Ar6rl9RfWenBz4uhMYJu4l7Qfmd0LvTkaT0Et0DqxxF3DZ5Al2cjtijuG9XCje2hcuL886UcByOuV3o5WvtRuqr7L8kyW85VCszEPsYs0EPPToXzHRaXf24orq/L2RMnGR8azhp1NehmsYKoknT15qQWVf/o/m2FPXv2qP+xe6V1Bj3MoTGCrtKD8UKXNdEeOeiXoj5/9Kqxc9w4OkzkrzHrRUEUasFG3ETAFv5u2UdLl+FSCjBZtbOzR9cKistiSawhsQICnmcp5CLIVxmv5oitWcQFnhUURdXG7Sh1c0anxicYPHYCP5B2vKkmuXwumJ6oHe1O8r8G8NiO1m2CtPDjfTk8U8K09uP7ojGGuwZP0F2rrq3cdBFEneWSekVEUxa+3Lg6JHaBPvBFEIEkhalq+7cEcLnPTsRVIfBSwnyNsFDD81LGKnn+/uQV/MlT9/KnL97u+qHP96YAZAVFSUSa1DssLn9HzTbqqlQ5+foRt87a2qfahbiiWwM25Rffe7fMfHKvBrtaoCL0UjRo+IQNER9a0FNaCnXrJYyq3H36OE/fcGsDTu9WQRBVYr+HxOsiZ0dQWrMO7A056MsQAiMwXVUKgZIL5KJ+fKuh6tSkfgMSAd9L8bwUjELiMTpT4MBoHy+c3cSLQ5vYP9rH4HSRcuyT91MKfsKCJhYpYJx/bm2CSGPiPHCfW0Q4duAgaQym1Xf8G4m7e3Ph5HjtUx++K//lPXvUv69FrZY6jRF09ZYeQrUodevl6rFhbu7u5eCmK8gnEbaBJ/tqoAhGEyK/j8QrkYuGQEJa9fgprkr0YjKwmE+swHjFMuC7VD5lWfeIppCqZAKseEbxTQpe6jyy1GOsXODASB/PD23iuTMDHBzt5cxMkWriI1nvlryXUgyqWBXXC30hzPHPVS1iGjf8RBW8wOf0kWPMTE0ThCHW2sZk0TSXJJfPhZPj1dfTifyvwOoOrlgojRF0bJS1Pm/Ms1orYTzuGjzOcKmbqVwB36btnaMurlo08YpEXg+lFs8NtgtoyrUQjLiB0tNVS2/BLDvqbwSqYFWy53pL4KXgZwKeeIzOFNk/2sfzZzfx0tBGXhvp5+xMgWri4xkl9FJCz1Lwa66AKBPxZNEl/wJqSaIyjU5kVWsJswKjkTNDXHPLjdQq1VYXdAX8JLGQ8s92vkMqn9yrwc4Wj86hUYLuyRR2GStXLUrdevHjmHtOHeWxm253Yt7WeXDu4lWTo5rbApOt2fREcQs8qaqbi9mA3W0EJitKzl9560UVNw4u289GFM+zb7BQRmaKHMgE/MWhjRwY6WNwpkQ18TCi5P2UnJdSDJyVooCqkKqwvFyECwqKGhSdg/PRPd+nPDXNqcNHueH2m6g28P2bg8TdfWE4OVb93fvvKjz+yb0atGpWy4U0RtAtU6itYkweq7rMs6ulMOoKjjZNjHHn2ZO8cOX15JK41fRvUQiWVKASXgHZomjLjaPLFL3eNtdc5KMt9XFwrGzZ3J1ZLw26WVyMubaHZyzBBRaK88D7ef7sJp47u4mDo32zEbiIkvNS8l5KKXBaUrdkYtvIONotiMZxlTRpUEHRXFQRY0iThBMHDyHm3Q29YTSBqNgdhlPjtcfv31b4bYDBL9I20WpjBJ1kAswYxrvStc+db/v2QlDwfW4/e4pzxW5O9faTb9v+6U4GVaCSu4KlSeLKkVzGEVrKJxeBOHV++oaSaZi2uGiZLHJ2/ch9LwU/ySwUfzYCf+HsJp4/u4kDo32ZB+7hG0voWXJvslBcbvnc221DzzrFLYhGZVBLw1NZRVC1eJ7HyUNHiGuKad0GeKkfBGFlKppU0Z8B2LNH/fvuk5arCL0UDRF02fnOYf3ck+fwvCtJ4gaeDa1BPRIUhXtOHmEiX6QaBHjWtqGf7qRBNIvQTZClZLbY98g+TpI2/nQy4pp3hZ7SnRfSJVgvdQtF1X1UJ+DWReBzLJT9I308f3aAF4Y2cmC0j7MzRSqJh5dZKHk/oRTETry5tIWyyI+3cARAiWcLihqPWsUPA84cO8H0xCSFUpE0TRv/NLA8VEF83xBF6T/98J3FY3v3anBvm1gtdZYt6Lp7tyc7d6aghzDedhp6e28dBLCeR6FW4d6Th3nixre0sZ8uGLIIvT6KrsXIdGbBbXMXixEXpfueIb9AP/1NFoqXgGdxH9RnZKbA/pE+XhhyFsqBkT6GykVqmQcees4Dr1so9feLtZEWymKpFxRlE4qacPnWffSJkVGGTw1y8/bbiaddK4DWQeKevjCcGq/9xw9vK/71HlX/XmkvMYcGCDpjNxkgReRFPO+DNOOMaBGMKtYP2DI+yrYzJ3n+quvJt6GfrvUIPdiMNXlEE1Q8ljLjpplYvXTKYkNQGJ1xfrrv8QZRn5sHrmQzOi/IQhmeLrlFzDObeGFoEwfHejkzXaSWevim7oEnFDPbRdW934VZKE37fvOhihiPOCpnE4qaZ4V4nkd5eprBY8e57Ttup2FeV2OISj1hODVWe/RD2/L/CuCxVoxyFsDyBb1OyrPEETSq+rRFqfdOv/3sKcYLRY71b2pDP10QTYmCPqrBJoq1k2ijvdNloOoi6LSJETo48bYWRqZTNnV7gJBat0Bs3pQH7iLw18718/zQJl44u4mDo72cLRfPZ6F4KYUgoSuMZ/1vRbLxeS16foiQRBXUJi7/vFmIYK3l+IFDs39uCZQkzOfC6cnqGcnnfxwy31zaxzefy/IFffCLbgU4jb9NjWmM14VNW9CUbQyzfroIbz9xmKlcgfFCkSBto/x0AcmKi6rhAMXqYVSKSCvlpIuLzt2+nm/jpeF8a6ESKyPTli29Cn5moSQ+w3PSCJ/PslCGygVqiTebB956FsoiyD5kEs3UV1Zo5k1dxDB49BhR1WKMQVVX10cXUjHGj6MIz/j3f/AWGfrkXg1avRr0cixb0GXXLquqIiIn9XNPPUsu/y4qMwkQzPfadkVw+elemvA9xw7yjVvuJPa8NlokFUQtiVdwPrq2WFZWXWguk7K4GDT73+zgZHWLmIGXkvMSjCiV2OfgcBdnKxt4IYvAD4z2cnbGWShzFzGLfjL7vi1loSwa55/HUaX5n1kVP/A5e/I00xMTlHp6iKNoNQVdUSh2BUxPV3/u/jtyT+9+RcOdd0o03wtbmWULOgCPPuoBCegjeN67WLPx+Xnq+eldlRm+88QhnrzhtrZaJBVc6uJM7tr5Nl15svNntinXpXbnZYLJ81kozkLxjBKalMCkGFFqqcdwpcih8Q28NrKJfSMDHJno41zFWShelgf+JgtFpX2Ski9LvSFXjTRpzISiy6G4hdHJkVFGzgzRs6GfuNa8n7cA4u6+XDg1UfvP928t/PFuVW8ntG1kXqcxgj68wx2Z1H6J6anfw5jANWxY2356fZH0irERviM8xt5rbiSXJE28LBqJE/Ry/ppsgap1PnX9fpjMN278AodA9XwpvSeWvJcQeikiUE18hsolDk/0zQr44Yl+RisFF4Fngp+/iIWStKr/vVzEkERVbNrYhlwXY7ZidHqasydOcetdb1nNMy7q6s2Fk2O1L9y/Lf+rAA+AZQ00F2yMoD/gVoTlI+98UT/35JPkC++kUk5Z4wukkDXx8n1uHjrNTJhj3+arXeZLO0TpCuXc1eAVELWcrxhdfVSdh35pXMaIzXqyGJTAs+S8FCOWauJztlziyEQ/+0YGeG1kE0cm+hmuFIlTM7uImfMTCn5MPZdGdSm9UNqXOJqh0Q25LoqCMUKapJw+cmzVHuIVolJXLpyeqD2fyqEHAHaretJis0GXSkMEXURU9+4N5N57Y5RPI/JOVE07WA8Nw/O569SdfrJvAAAgAElEQVQxykHIsf6BNujM6FIXZ/LXkHpdeLaKlYBWidRT6/47f4MRVFwmCgA2IZCYMGcxKLXUZ7hc5NBEP/vODfDKyADHJvsYqRSI0vN54AUvpivQ89G8CumqSMtqI6CWuAkNuS6JCCLCqcNHSRNW2JoUFI3z+dz/3965x8l1lvf9+7znnJnZmdldreWVLduSweCbVjbGWuNgbCMBAeMaDLK1EiWEpqSI5kJpaAlJkzA0aS7QhjYk+VROIG0pIK/AJB+nBJfLmgRCkq5KAK+MKTZgG8uypL3O9Vzep3+cMyvJ1moleXe1O/t+P5+RtKM5M7Nn5vzOc37vc8nVq62nVJLbhzYNhHtGR4OhFZhvPhcLIugAbNmSnuFif5h6rUKQu5go6njbBY5d+YsINz7+KC0v4Ome3rTnyzIWdaOWZq6fVrCWYvNHpG10zy1KellnNe1dgvHS6FkTTFzH2BaoRXNlJqJeHjnYzcPj/Tx89Hwem+xjvJkKuG8sgbFZHniUPXe7G+FSCslyRbBJRBIufEOuuVC1+IHPM0/+mNp0lVwhh02WqpWuxrlcPmg1WvXYxrcNXVs+OKoarMTioVOxYIIuIlb3jAbyU4PTuvdr91Do+iBRtCpsF8hEXQxiE2760fd48EWbmOgqkU+WZ456WlwUEfq91PMXUWw8+hxP+pyQKXqUKJK08DREbEziFwmLl1Dr2cRU73XYDTfxyU99hy98YYyg1As2puC1s1BSC0XJFjE71QM/a45ryJUsQkOuOVCrBLkcR59+hqmjR1l/6QbCuLUUkXpsPM+PoxBF7xi6tvyd4THNDcrKzmg5GQsm6MCxnPRW848QfoEg6CeOElimI3EWGEGxnkcQR9z8g0d48MWbmMkXbC6JUZZZqC6C0YSWn6dWuITzNTlnvubJSJKEVtdFNHs3Md13PdW+66l3X0lU6CdWKJVhKnqMvIlYU2gSx8mshRIvnYmwMlEQI0StGqoJYoIlitDTkXSNWo1nnnyKS150aZqLPt+GzwchAfE93yduhnfftblrpBPSE+diQUVGKhWrIyO+vP01RxE+TKELdGWW0J4t7XTGrlaTWx57xPYkscHPpe0RlhXHwvFq4YWz95xzxEDS5LEr3s8/bhvh4Zf9N5646t1M9t9MnDsPkzQJoiqmFSNJA5H2oGQzu7C5LH6P5Yyk4hq1aumpb/G1PEXTTotRGHLwh0/g+en7WCwULIpX6MoRtaJ3vHlz/rN7RjXoVDGHBRZ0AL66NRXwibH/THXmYQqFAFiRZbRnS5r5Ethy2DQ3Pvrd8ThJjubzeQ9YXr2Fs4NpuvgiEH9JorRTkdpACdZ0caj/tcS5El5SI2jV8OI6YiNAQDwshijWYyK+jHbr8kZBDDaJjg20WDJFTxGEgz96nCRm8eweIRGBYjlPs976V9sHch8fUfVXyqCKs2XBBV0qmZe+e3eEyC+l35VlZjcsAaKJpWcNfUcPv+dgKbg1bDZjP5cPQJfPF0oMxkKtsJHE70E05pyecMQg2qKev5jQ68GPQ1Q81Pgg3jHVFkETJYnTFqy6xIK0olEQMcRRExsvcaWmyGw++tM/eoIojGdbACwwFkVK5byp11rv2z5Q+IOREfW3Lrur5IVnUYRWdg9GWhnxZeimL9Bq3EO52wAde5lzEkJKPT5Tk38lP/PaT7z7Ujmgwrao1YqCXD5gmUTqisHTmHr+YlrB+WnXxfk2WkQUARtSK2yglVt7yt4yVi1JHC+tIHUQcZZ/vtTfw1TQPcafOcz0+CReECyooGtaIESpJ2+qU81/t31T4cPDqt7WrSTSAYVD87Eogp7y1fRofGbm3cxMf5dCV47VIeoxfpCjNjOO8rMAf/u3T3RtH+j6moj3qihstYJcPlDVcy/qIoiNCf1eqoVLQcNzfzGlluniFViBdOTDc/eRiKDWksQJyyIzZyWRtaeIWtlAiyX/CqY9XabHJxg/9AxBzkPtAi2zCYkApXLOVKfDX73rmq7fHh4e9naAXQ1iDoso6FKppNbLu29vge6i2UjwvBzLrhPUQiIW8DEGSN4mb7n5KR0dDW66aUNjeExz2weCr6nYrVHYauQLy0PUhYTEE2aKl4GNM0/63Hz3RRXEY7p4edZtdu73Ye0xy8VxuqR5TNbGxFE20GKJP2rNLJ9Wo8mhJ59ioabRtRdAi+W8qVVb77trIP87w8PqHTiwQ1eLmMMiCjpk1svoaCC7bvkWwk8T5MhCwAU6JS8rFNRS7oEw/GXZ+crP656sehYYGpBweExzd20q/p21ya1hqzVdKOaDNCw+90wXL0996nOUvJguiMaoV2am6zLMHIegZs3PrLXEccJit3ztNESEJGoeN9Bi4fadSFre73kn3vwTboYg8BBRDj/xJMaQLY0oz+O9xEbEFIp5atXWu7dvKnx4eFi9HTuwlYp0otbMycLmoZ8EGRyMdGTEl203f0rv/ZsNlHt/l5kpixgLuqgnlCVEgYjuNTlmpv5Ydr7iQ1pRw+4Ts3tSUR/L3T1QGh0em3k5Df1yV6lwYaPWagH5kz/1YiMYC1PFK8EUEE04Nz1d0kKnZu5CaoUNiJ37xCKATSxxGKVFjid9lOOkiBCFdaxNMObsh5q0m4p6nmBEsKrEsSWKE6LIkiTZUvWxP2bxfJ+ZiQbfe/iH1EOwpHnwRjSz2QCE+TPUBdDIeF7g+T71evMddw90fXxkRP3V4pk/m0UXdAC2bk3S2aO3/J4Of20NPWvez8xUW+xWuqgrSkzPmhzVyU/Jzpt/vv0fabeUExkaGAizwoYD94/pjY1q8yulnsKLajOtEFjy2ntFMGqpFy6hmVtHITyENQXO9kA/a0RAo3RBNFiL0WjOA1raEXoUnxPbYEWT5Z8DnO3FjRHB84U4sVRrEa1WghihuxSwfl2JS9aXuGBdkfXrSpzXl6enO0cu52GMEEeWZmg5dGiKoDvHefETtPIlanGeSPMk6iFYPEnwsn5ZelKJSMU8yOWDOAqJm+Hdd2/u+uyIptksq1HMYYkEXURUKxXNBmH8ig5/Dco976c6raBJdq2/8lAsgqVnTcDM5P+UnTe/DcgGZ8/dvW1oQMKsj8Tjw2P6stpM8wvl3sINM5PNSER8ltLzEMFoRCO3jlphI4XmE6h3jqYXacJ08XIiPyAf1bKxeCdBsgg9clkuZ0bmn4f1dL+dQXZJ205BodGMqdVjil0+V1y2hsHr1nHDdevYfPVaLr2km7V9BSgH6UZC21M57gSSXX1FMdT/hkRzNG2B6biHiWgNR6O1TMR9NJM0sPBNjMkWyI+d5DXMd+VzrUarLkb/yZs3dz24Z1SDbR3Wm+VMWRJBB9JFUjDZ2Klf0b1fm6Kr63eIQo84iZCVNuFIY0R8yt2GmcmPys6b3w1tMR+ad+F3UCTKqtbGR0b0pgltfa6nr3DHzGQYgXos2ZVLWsyTeHmmSlewduKr822wOCiAMFHefPwdJ0UkbcMaZ2mLLg/9dFBEPOKwThK3OJP+575vSBLL1HSIKlzxol5et3Ujt736Uq6/pp/i+V3gm3TEVGQhSkimw3S9Q09y3mjrvBE84+NJTMmfpuRPsb7wOKhPPSlxOOznidbFHAn7adk8fha1K0RdpUKuUWs+hZjXvfnqwkOdXM5/JiyZoMNxoj48bGTo5t/Ve//2R5B8gq5iQLMRko6tWwEhl4QEuRwo1KrvlZ03/z6cvpi32T2Yino2w/AN9z3UuKe8pvAvalOttKurLlUPnHTYxXTxShBzDvxzEBLUKzNVujIzqub4Gmgq6HEUozaL15b+7a48FDBC1Kqj1iKn4Z97Jv0mjE80yec8tr7iYt6240pet3Uj5fWldIp3M8bOhNisd71I+vkYEeQ0ZweqeqBeO25HRCl6VS4tTnFp8QfMRGv4YXMjjzc3Uo3LSU+PBK1qfczzeO2dV3U95cT8GEsq6MDsDNJ0ofSmT+vevzlAs3Ev5Z4rqc5YsAnMda19zkl9/3I5R7V6COxPyc5bvqTDwx4HDuiZiHmb3YMSDat6QyLJ9s1d77zvofqj+a6u342jxIvjOJIlunIRhaniFeCVsgKjpRN2RTC2RSN/MdWuy/BsPOe5TEkHC0dhhE3ssct5x6kRSP3z6ikfppoKufGEmWoq1K9/9aX8/D+/hltvvgRKAVRD4vHmrA0jIvj+2X8Obbv7+GdQPLA+iNIdTHBNcJQri99LnmLAe3h83RffNND3WoDRp0aLgxdJ/WTPuxo5J8KZLVjE2VCMb+kffP4lwH8hl9+NiKHVjEgthyWKUOfFgsTkghxeANXpzyG6W4ZuPax7RgOGBuPnszQ3JJJUNM342S7ye595qP59I2ZvoZgPWo2lWCwVjFWqXS+kGfRTCJ9Gl2xhVNPBFTZkuvhiWsF5eEmDUxY4CcRRlE05dMyPAubE/POTfLaqEPiGKE4YnwzZ8pJ1/PIvXs/tr78McgaqEdGRRpqK6J++ZXM2CNDOKVAboEDOa8oLvP/LC/rt5Xrk0z+/7yu7/uvgRVLX0T0BW94Zr9aF0ONZ3E9lHmRwMGoXH8nOm99F2LiNVvMA5Z4AP/BQIs5pt0axKBHGGLp7coStJ2nW3io7b9neFnPZPRg9HzFvUxGxHwDdM6rB3ZuLn7UkL2s1Wj8s9+RzqkQswGvMRdoCoEUzty4tMNKsCdaSIaAxk6WrSQzIPB95GqHHWOsi9NMis6lOzD9/LrnAMF0NUeA33nsDX/7Mndz+psuxrZh4soW1ShCYdHF0CRFJUxpVfaOxZ8kVX0Dfmj/csW34G/r0p2+Uwd2RiKjq8HIJAM8Z51TQgazvS8VoZcSXnbc+wLroJVSn/y1xdIju7oBcYEirS5dK3C1oDMR4nqG7J8DaGjNTv00UDMjQzZ/SihodHvZk9+CCrqiLiO4elGh4THN3D5S+KWHjpTPTzS/19OUD0qHzZ2zpnBaSLozGnmGydDVowtLNhJA0o8YETJavObV/DrPiFLXCJZx20wFI1v/cPvcrJAK+Jxw+2uCaq9fyl//zDt73ay/Hz3lEE02MpBH5Ugv5s0lzXNTQCi3jUxHlrhvI+X+nh/f+BoDIUKK6Z0ksyuXKObFcno1UKhZIWwVsG4yA/6if++afUp3+BWA3xfIlgEejAWrbIrqQ6X0KJJlBG1AoGjwPajPjVGf+DOEPZOjmxwFSm2hxU6OGBiQcHdVg8KUyCfzk58aa/7FQzL83Di1RHEXCYvjq6QXAROka0q6H8zx8gUjz4GMSv5fp4uUYTe+b+/GKCIStMIvQWcRrlw4hS1E8ln+e/qyaFgapKkcnmrx951X8/r+/mfx5BaLDqbUSLLK1cpYYEEO1EQEBfd0f1MPDt5JjSGRoXHU0EFnYYGulsKw+rTRaV6MjI768+aWTsvOW36Iqm2jUfpZa7UHUJpR7AoqlAOMJacQakS5WJlkEb0kP8ZPcxGaPSRDibNsEY4Suok93b4ARaNb3U5351yT+Jtn5in8jQzc/riMjvqqadin/YjM4KNHIiPoAbx4o/JtmvTGUxFGtWMoHpE3OFljG0la60+UrSfzerJXu4pP6502qhUupFS7B2JB5I3QDUStdFHWziU6HdH5oHB7r36KaRuXt4qDfev9P8EcffQ35Lp9osnVOrJWzIAC1TFZD1hRfTaj/qIc+c63IYLRaI/VlEaEfj6S9F6yqCvfs9+UdgzPAx4CP6d6vb6Y6809AXwsMki/0EOQ8bAJJdrNJ+m09WdGEEcH44HlgvPTvOIJmo0G9/m3gAZC/lF03/5/2JrpnNODglkS2ydIo3HFs2yaxqsqDD+JtG5B9fzHW/Gaj1trbvSa/ZWaylZ6YFugzVDF4NqRa2Eg9fwnd9UewUpzXz14QNGKyPEDol8jFDXQeG0VII3RtR+iOU3Dc/NDZ/HPF94UossSxZc+HtzL09s3Y8SYKyzUqnwMxKDmmaiHF/AZqrX/Qp4dvFxn6io4N52RgaFWlMy6IGCwG2Yp1pKqGe/Z7snswkl2veAh4CPg9/e9fvhj0elqNLSDXAi8E1gHnIVLA85jNlFAFa8HaEGvHiaPDqP4Ike+A7Md6++UtL//h8a+ve0YD+h6zMrQ0EflctDOChsc0d+eAfB/0hvvGGh/Jd3X9K5tgonChsmBS6yP0y0yWNtFd/TbqlRFNWEzVFFVAmCi/JPPt04aVp0I1FXS3IHoaKFn+eQ2rCUYCjGG238qffuRVvHHnVURHGvhZX5YViZKj3grJ+3nC+Mt66N7b5IKhB1ab/bJsBb2NyHER+759hv5+YevWRER+DPwYuL/9WL3v79fSCHsJpIco6cbEWcMrE6KmiommwZviwC1H5SRd2HRkxOfwYeXAAV3oBc/ny9CAhCOq/jaRePsA7/nMt2sPGs/8abmnsLY61YqztPHnucqfFhiNd7+UDYf2Zvct3gE+22HR72GivHnODosnkL2dsLmqAq+zR+BY/rlgDCSJEkaWP/lP23jjrquInmng+9IJC8w5ojgi8AOi+K/08L2vFhkcWU2ivuwFvU0Wqc4u0WulYlh/RypgfY9ZGRpKZPuNR4GjczzFCbQjfwAObkmkIla2bVtyW+VM2CaZBQPeNpE//4vv6Deq0609pZ78nY16jE2S5xmtp50Xx7uvAa+cNchazAIjQbRFtXA508UXYWzMfMs6gqAKrWYrFaDFemudQnt+aNjAGIMIzFRDPvKbN/Pmt24ieqaO75vOudhRAqI4Juf7tKLP6/jwy0QGv6O6JxDZ3fGivmIE/dmkmTGV2ShbKxXDpk1Cf7/wve6Tfz2vmNHZCDyL/E/6uGXMMQtmLHfngBwC3vTZseZugY+UevJdtalWrIKR+ZTxJLQzTqpdL6SWv5hS84dYr5TZLouACNiIifIAraCXXFxHT6PHiCqEzdZ8D3OoIsYjDOskSUgQ+Bw+2uC977qOd7zrOuIj9Swyn++JVhw+YRxSKhRotP5SJz95nchbJ1SHPZEzr+ZeSaxYQX82WerjqmFoYCAcVvUOgN4lsmd4rPnl6lTzD8s9hdc16wlZ24AzS+0UwdiYZrCWqdJVlOrfA68831ZnjWZ/Hu3Zkvrnapm38WaWpthqtM7kN1u1CBA1q/geTEy2eP2rNvLvf/XlMBOm/VY6UM0zUk99TWkjE/W9wOvSPHWVTq4onT8ccixbhkSSiogdHdVgaKDw/bs2d91WnWm9K0mSme7efKCpZp6BjSQICdbARPd1pDH74n33jcZYv4ej3ddjLJyy3D8jtVyUZr3pUhbnQwSrFps0aDQTLrqwxB/8h1shEOLYroS0xOdLjslqxNrya/WZe38NgP33dEwQezLmP4Icy552znqlouaugcKeALt5Zrr1ma6uvMkX8v6Ztg4QhaPd12WNutIJRguNYpCkSbXrMmaKL8az4bx2Szp+DpIkybJcwLXOnYu0iZmNQ+KwQbNl+c3338hFV55HOBPie6vk0FfxGZ8BI7+pR/beIIO7Ix3t3Bz1jj5brSa2bZMYVPaMavCGAXkc2HHfWO1O1Pv9nr78ZdWpCKs2knkrbAXPJkwVr6Sev5hi84lFaNSlqXjbFke7txD6RXLxKQZaHIcxhjiKiVrRyk2xWzIMmjQ5Ol7lrjsu5+4dV2Inmissz/x5IghoRLkrYKbxR8DLZHB31KnWyyr6ZFcDWS8YVW94WL3tA6W/iHvzm2tT4X+w1kblnnwWmczdukDFYGxIM3d+2tfFLka+d9a/RXwO9944e9+8KLRb50Zh1Mn+7/NHUwerVp3ivDU5fuO9N5BWiOoq3G8SMNOI6CvfoEfuTUdEdqj14gS9AxkSSXbswO4Z1WBogzTetCn/a77PNbXp1ufyhbwUirkAJUZO1uwrbdRlDRztGQRsZrksXDBjxUM0JsyvZ7znOswpBkIfj6KISYdbRGEExqUtzokInihHDk/ws28d4LJr+4mrId5qsVqejWCoNUH5dZ38ZF8apVc6bmd03C/kSGl3blRNbZg7ryo8sn2gsD1qtG5rNJqjpZ68n8vlPZBIeVZeohiMwtHu68ErYTTmdAR3LtKlVZPdBFFFwmeYKl1BtXApnrZOz6fPIvQ4jIha4SqMNE8XxfM8pmeqbFgf8M6fvgYaq3z+quIRxhF95QuIgvekd65/noV4yw8n6B1OW9hHRtRXVfOmzYUH7trUdUNtuvnOVqv5o1JPLsjlCh4QapaXrxi8JGK6dAW1wgbEtjj55PW5OSbiaeaM0RZGmxhtkZg802tewaMXvg2FzH6ZX2wUZiP0MHQe+pxoutYwNTHFzjdexgUv7iOuR3jeat9f6lFtArxLp+9bK7I76rQe6md2lDpWLOmiKTqiaQfH7Zu7/iTXmNhUm2m9Lwpbh7rX5HO+HxggUhFrNKIZ9KZRum1mGShz+RtZp2raU9kVoyFGGxgNseSoeRcxLpt4tDzEyLWf4Ysv/V88ef7t+Ekj7bh4WqT+b6sZksTJaZ0EViMiQhgm9HVb3nrXFRB2dC3N6aNiiOKY3uI6WtFPA7B/oqM0sCMXBhwnp11lCrBnVIM3DEod+PB9D+vHZyab7wb5uXJv/vxmXUnCRgTI4d6f8Dc+/enZJlpAJtptMdUsAm8X3gqJFGiZ86nLOupmHU1ZS2h6IE6YKV7FZPkKgqSVpkSetpiniAjNegObWDzfw5noJ6Kq+IHH5Hid217ex2Wb+klmokUfGbciSL+2SpyA6j9TrfyXNErvnIwXJ+irlMxfN/fsx9t+tRwFPnD/I/rR6mTzFxH+ZXdvsb8ew3j52jgJ1oixsWclQEjSmyakAu5lAr6GuvQfE3DpxhKQCr5FUHxtIEbxbQRqz1jMIQ3Km/Um1lp88dPcdMezSFNC3/z6y8CYbB+5qxkAFJ9aUynkruXI1a8ERmCfYbGmgS0xTtBXMe1+NhVV80ow20SOAB8Y/n8zf1idqu+24v8LvfDqjeGT19L19BcTL+hVUC+hKHMLOGnEToJHs/1Ks356HPRgvQDPnkEB63HMCnriphWdDM8T6o2YF17sc9PgOmjEzjs/EUEIKeZztMIdwAj0d8wOcoLuoHKcsK/fjzd0uRwGfmtkZOQ//yi/9Z8+FVz9nhetOXR1gws40urRhlkbhnT7KoFJizePCXiqsW1L5rjL/HRFkzgoZyJ8lkos0KylEboguErRE/GMoV5v8hOv6qXUXyKpxnidX+J/Zqj6NFqgcpv+4M8KItuanWK7OEF3zNIW9mFVb2L/frNtcLAK3IPqn3z1S1/aUT783fd0dcUvLwea03qNOGlFIhhFvbaAn/qIEOJcOfvXmUt6WvQHzXpjtg2A40SsgjExN12/JrNb5ttiNSKGZqQE3gspFrcAX4cHPc6o79HyxK2UOJ7DkEiye3AwqlTUjKj6iOgrf/Inh7f801+8qe4XXzXR4hOh+NXe7lJQyAUeaWZ5rJAwZ5SjqZtunle7dqyFRr25unOq58AYCCPlvG649upeiKw7581NQrkAntyS/vi9jthVTtAdc1KpiG0P1RjNGhoN3rV75CVv+aWfrl64+apnkq5frlp/LMjlpbfU5ed946m1lnSI9bPaGWfpjEnax/xMA0fVNKNdbdpp0fFcRIRWmLBxveHiC4upoHeETC0SVkH15ekPBxM9req25Y2zXBzzknmLUaVSMR94JWbf4TG96dVv+DHwIeBDf3/fx19VD6d/ymhyR2+50G+wXq3RJLFEmdHtASJqCcLps7dKBGyS0Kw3XIR+EgQhbEVctiHA9BZIpqLV0CL3bBGiGOAq1ZHURx8e9mBlD8Bwgu44bSqViq1kkXelUjF3rF/vDe7eHd24/Z9/BfjKX3/+r/vD6thtuaR+l5B7zZqyX7JxTCOMiK0koDbfOCyi6qWNWM4MESGxlvpM3Qn6c1AQQW2LF20sg2ewqnhuP82BCmEMsIFnnroIeIwdKz/bxQm646xoi7uqyv577vFnDn5ab7391sPAJ4BPfO3++zeGtcfv8LV5p8He1FPKlz1rPFoHORTOaOx3RUYTQE57qpJIWvbfbLSQMz8fdDoWTBy3at6lF29IF6ndiujcqAiJBd/rIjYbgcfm22Ql4ATd8bxo2zEAw8PDXn//Adn6Vay84Q2PA38M/PE/PPDnG6Kpp17vJfI6L5p6RV/0zAWNdS8OaAY0GzHWJglKOo86TVpv5z2e+FpGCBstolaIMebMjfjOQUklSVU1C8SNQYJcIa9ceEEZYuuuYk5FumsSCjmP6doGAPav/IVRJ+iOBWNo6Jj/2LZkthw8mMjr3vQEcA9wz9/f94drk6nDg7XixltJ7FZBrusq54vGgziCKIxJksTKsRQyATwUMcbQaoaEzRAxqykHXSyoJcvmV1VPxBiRAM/3PEgIct5TCn99xYvXjGy6cu2vkcgG3zcJcObluKsDQbDkfA8j/fM9eKXgBN2xKBzvt49UKn73+vWy5eDuRLb/wlHggezG/WO6sVFt3KQirxHMoKJXFEv5Lt/HJAlEIURhS1GNxRgbNkMTtlqeMWYxx52eSxREQdOrFlFPVT1jAiPGS69MSDAeR4Jc8I9+4P91qbf7q3ftfM0333HnVTOq6jE+/AGsq6SdFyW1pUT6AJg5uOL3lhN0x6KzrVKJAVRVhjcNef39PyewlW3bSLJxeY8DewH+Yqz54kateaOIDFrV6wWu8oP8ulxZ/GIZnlRD2Izxc75V1dnUSElVUI79eHq+/DlAsxupZXJMclWtiBgPRIzJGeN5gEUkwXjmsSAIxoJc8I18OfeNy6+9cuyjv3r74fa2n/9U+vePv/2n6y++qKeYpuQt232wvFAtArB1kxN0h+N0yfz2BPbN3tduN3DFDLptm8R3DhS+D3wf+CTA/Y9Mn59EXD3ViF+qWr528siRa/2cd3W+UCirGpMkCQJYm6A2QQRUrQKxCHpimCqIYFRFQI8XuyfbfTkAAApUSURBVOcrfMcJgaiIZkLdXpVMn15VBcWIEYOmSwXGC9KzjwjGN8RRs5XL546KyLcKpfzDauUf+tb1fPeNb3vdIz+z7YWzCfhf2AuA2bLlnV5390X6cz+3SYeGhpKLL+5VVH23IHo6aPuv51Httrxwgu44p7TbDUAqeA8+iPe9bqQt8G+4sucI8DfZDYBdv/Cxixq18JqjTx25KMiXtjRrjcviWNf7vv+CsBl2iyl4xvi+tYpai2rbftBZ4VfSCFnai2OIkqnwie/w+MrXYycByc4OoIKKaKbQioqIwRgPMV77kh4jBuMZVBPiuEUun6sLcsja5AelnvKP41b4f7r7eh7v7rnw4Yuu3vzER37ppsbx7+JzH09fdsuWd/qwhcsu67P79g0l+/ffk9paW7NxavVE6RJXUXRazO6jFZ17fjzuU3csW1RVANkH0v9g+l3NBnWc7LFm928/cMH/+/tv9ZR7uq8OG81LJo+Md+cKhcuN57+g1WyWolar5AXBOhGzBtXAWiWJFTEmywiRM8gM0bSfjCpWLUYE4wsikoDORFF82PNkqlDsahoxB+u15sOl7q7xnjXdR+rTzQPnX9J35KY7bpl69+2XT8/xArPRd3//Jt03cECpfEBPPMEco91cSp/+H+vw8mME/vlEkQVx1eBzohF93QGT1d+T83e+X3XYE3GFRQ7HopBZNM8RsEqlYu5/ar3X/PpBGRt70EK/pkLKwez2yLO3gVT0f/7Dn1838fjUmka1Wpg6fNSr11pd3WuKF3j5fI+BslpKNrF51cQo6mmStccQVWP8WEQVz0RGpK5QVWtnqtO1Z0ST6bXrL0i6e7tbpbW91YsuLT9T+Zltp+xRsPePATCwQ7Zs6TNbtmxhYqLP7tu3w4LYdvQNZC5V5aTPcwKBaWK1hifnE6387oGLi5BdyUylP7vCIodjyalUKrM2TYZUKhXz4IOp+M7MPDV7YO7ff1ECFQuQ9X9/OrstJWbr1oppv6/u7osUoL9/k+7bN2Rhn92/n2T//lM+xzxkv/K3v19n4KopPA+InKDPjQKCtZDoONAReegr/hdwOOZBjg/yK5UPCsDY2Njsd//w4YHZf6eiu4VTs39WlCEV5uMXegcGBrSS2iO0dYOTXGksNKoVI1KxevjeL9Jbeg3TtbCTFvwWmPTzyAdCK3qj9O+8X3XEF9m2olvougjd0eno8XFLpXIyYT0mxgvBvn37OGaPLGXMtKn9Yj/M0n1kaV9/RaEYMbQixerj8z14peAWTByOjmHWAz6Q5UKe6sGrHcX3AA4RtZ5M7zq86FdRi40TdIej07A6Rr0Fis8SWD0rEhEl54PyqFzy9qPpnTue1cN/5eEE3eHoGLIIMzRjhNEkgS88Z9CIA0jrA3wP0P+b/jjid8JMUSfoDken8MEDCiAbhn6M8hD5AFyEPhdClMBswdrKz3ABJ+gOR8cglYrVbFQgah/Ed4f3HCie8ag1pxH9enrXwRVdUNTGfeIORyei5gtUm5C2z3VR+okklAqgfEP63/JUO91zvo1WAk7QHY5OYss70zzqdUN/S5Q8RFfO+ejPRlBEQPhsescrO0YHO+YXcTgcabsEHd0TiIgiDFPIAeoE/RgJvh8wVZ1A5f70rq92zP5xgu5wdBpbMj/Y6qcYr7bwvAAXpWeopVwAkT+XdUNPqw57UOkYS8oJusPRYYhUrA4Pe3LBrkcx7KO7CMKKLmlfIBQkYKoOsd4DwP4JIx00+8oJusPRiexoV43KR5mukfV0We1RekJPEaz9X3Lhrr9TrRi27O6oE50TdIejI9mW6PCwJ+cP/QOqn6G3BB00yOEs8WiG4PE76Y+v7KjoHJygOxwdiQhK/4E0So/1g0zVEoSA1ZrCKISsKQth/Gk5b+fX02EWK7uz4slwgu5wdCiyrRKrjvhy4a6HgI/Q1w1CNN92HUiCMTkmZppY/fX5HryScYLucHQ0WUpeVPwA49OP0ZXPrT5RV0tPEVQ+IBfselR1T7DSR83NRUf0L3A4HHOTCtjuSA/tfS3F3AM0I0t67Hf28S+AakR3MWCm8TXp33kLMDt/dZ6tVyQuQnc4OhyR3ZHqiC8X7PrfNKMPcV63WRVRupIQBAHT9RrWfztA6p13pphDp5+hHQ4HcGJUqofu/TLnlV/FZDWETh1RpxZEKBWEmcZdcsGu+1RHA5HBjj6RuQjd4VgFiIimVZFAM76bieoPKBdyQHjqLVckCpLQVxaqzV9PxXzE73QxByfoDseqQWQoUd0TyKVvnUD0NqrNSbpyOdDOEbr0KiRmbXfAxMweWbfzt1QrBrZ25CLos3GC7nCsIlI/fTSQ/l3fQ+2raIRVuvIB0hGRukVtzNqegMPTn5T+Xe9q/0cn++bH4wTd4VhliAxGOjack3Vv+SYqt9AIJykVciit+bZdxiSIWM7rCRif/jO5YNdPAejwsNcpvc5PB7co6nCsUnRsOCcDQ6Ee3nsFyl9xXvdlTFZDlICVpQ0xRny6izBV/bD073oftDNaOjPffC5W0ofmcDgWmNkc9YnPrSEO93Fe92sYn1GEOBP25YwCEV35HK0QrH2X9O/ao4qAioismsi8jRN0h2OV0xZ1AH1m7+9QyL0fz0CjFaL4CGbZdYARIhSfvrIwMfMYCW9NOygOe7DDrhbP/Nk4D93hWOWI7I50pOIDyLpdv0IY/ST11vfp685hxKAasWyaeqkFIoqFgK6cMD7zMZLw2lTMRwMYWrViDi5CdzgcGaoq7L/Hl8HdkepIgSPPfBD4JdaUfCZrABFpEOid8okWHqXd+jcX+BTzMFH9Dsq/lQt2PgCQ5pl3XvfEM8UJusPhOAEd3RPIYGbBHNl7NSq/gcgueotQbUIcRyAC+PM81fPFgiaAR7FgCHyYrj8J9kOs/e4fiVRsZrHoavTLT4YTdIfD8RxU1cCDph316pG9N6D8Iip3c165izCGWjMt4kmj9uObfZ2NrmQ2iSpk4ux7PuUCRAnUmw+jeg90fUz675yB9MTDlt1xpw2peD6czY53OByrhHa7gHb6n05+9jLiZAiru/DNS+gpQhRDK4IoUYQERWeVRU8q8kpbhJV2V0QPMYZ8AHk/vX+6PoXyJYx+gkPmr2RgKEzf054A3hmvZq98LpygOxyOeUmj4T57fF63HvnMjWjyWuDVwLXkgj66AjAGEgvWQqLp35ppr0h6MwKeSW8i6Umh2rTAD1AdxfB5NPii9N91cPb1UiFPnL0yN07QHQ7HaZHmdw8b6JdnL0Dq4c+ux8YD+LqZmKsQNiJyEUIvSgElwCAoCRCC1lEOIzyByGPAARL9Dusaj4j8THP2eYeHvXTg9Vftaqr4PFucoDscjrMitWMmzKnsD31iuAsvLhHkAyQxJHFM4Df51oGabKucNCvl2PMeTJyIOxwOh8PhcDgcDofD4XA4HA6Hw+FwOBwOh8PhcDgcDofD4XA4HA6Hw+FwOBwOh8PhcDgcDofD4XA4HA6Hw+FwOBwOh8PhcDgcDofD4XA4HA7H8uD/A8xTlC41BQseAAAAAElFTkSuQmCC;" vertex="1" parent="1">
          <mxGeometry x="20" y="185" width="372" height="400" as="geometry" />
        </mxCell>
        <mxCell id="BToxjoX7GWgsHcNTnLzm-2" value="" style="rounded=0;whiteSpace=wrap;html=1;fillColor=#fff2cc;strokeColor=#d6b656;" vertex="1" parent="1">
          <mxGeometry x="392" y="185" width="438" height="205" as="geometry" />
        </mxCell>
        <mxCell id="BToxjoX7GWgsHcNTnLzm-3" value="使用场景" style="text;html=1;strokeColor=none;fillColor=none;align=center;verticalAlign=middle;whiteSpace=wrap;rounded=0;fontStyle=1;fontSize=15;" vertex="1" parent="1">
          <mxGeometry x="392" y="190" width="80" height="20" as="geometry" />
        </mxCell>
        <mxCell id="BToxjoX7GWgsHcNTnLzm-4" value="" style="rounded=0;whiteSpace=wrap;html=1;fontSize=15;fillColor=#d5e8d4;strokeColor=#82b366;" vertex="1" parent="1">
          <mxGeometry x="510" y="364.5" width="310" height="220" as="geometry" />
        </mxCell>
        <mxCell id="BToxjoX7GWgsHcNTnLzm-5" value="需求" style="text;html=1;strokeColor=none;fillColor=none;align=center;verticalAlign=middle;whiteSpace=wrap;rounded=0;fontStyle=1;fontSize=15;" vertex="1" parent="1">
          <mxGeometry x="497" y="380" width="80" height="20" as="geometry" />
        </mxCell>
        <mxCell id="BToxjoX7GWgsHcNTnLzm-6" value="&lt;ul&gt;&lt;li&gt;爷爷走的那天我没能赶回来，遗憾没有跟他好好告别。&lt;/li&gt;&lt;/ul&gt;" style="text;html=1;strokeColor=none;fillColor=none;align=left;verticalAlign=middle;whiteSpace=wrap;rounded=0;fontSize=15;" vertex="1" parent="1">
          <mxGeometry x="392" y="210" width="428" height="30" as="geometry" />
        </mxCell>
        <mxCell id="BToxjoX7GWgsHcNTnLzm-7" value="希望有人倾诉" style="text;html=1;strokeColor=none;fillColor=none;align=left;verticalAlign=middle;whiteSpace=wrap;rounded=0;fontSize=15;" vertex="1" parent="1">
          <mxGeometry x="517" y="410" width="150" height="20" as="geometry" />
        </mxCell>
        <mxCell id="BToxjoX7GWgsHcNTnLzm-8" value="希望跟逝者说些什么" style="text;html=1;strokeColor=none;fillColor=none;align=left;verticalAlign=middle;whiteSpace=wrap;rounded=0;fontSize=15;" vertex="1" parent="1">
          <mxGeometry x="517" y="444" width="150" height="20" as="geometry" />
        </mxCell>
        <mxCell id="BToxjoX7GWgsHcNTnLzm-9" value="希望逝去的人还能像以前那样为我排忧解难" style="text;html=1;strokeColor=none;fillColor=none;align=left;verticalAlign=middle;whiteSpace=wrap;rounded=0;fontSize=15;" vertex="1" parent="1">
          <mxGeometry x="517" y="483" width="290" height="10" as="geometry" />
        </mxCell>
        <mxCell id="BToxjoX7GWgsHcNTnLzm-10" value="&lt;ul&gt;&lt;li&gt;&lt;span&gt;最近遇到了好多困难，要是爷爷还在就好了，我好想他&lt;/span&gt;&lt;/li&gt;&lt;/ul&gt;" style="text;html=1;strokeColor=none;fillColor=none;align=left;verticalAlign=middle;whiteSpace=wrap;rounded=0;fontSize=15;" vertex="1" parent="1">
          <mxGeometry x="392" y="247" width="430" height="30" as="geometry" />
        </mxCell>
        <mxCell id="BToxjoX7GWgsHcNTnLzm-11" value="&lt;ul&gt;&lt;li&gt;我有亲人刚刚去世，忽然间我好害怕死亡&lt;/li&gt;&lt;/ul&gt;" style="text;html=1;strokeColor=none;fillColor=none;align=left;verticalAlign=middle;whiteSpace=wrap;rounded=0;fontSize=15;" vertex="1" parent="1">
          <mxGeometry x="392" y="283" width="428" height="30" as="geometry" />
        </mxCell>
        <mxCell id="BToxjoX7GWgsHcNTnLzm-12" value="&lt;ul&gt;&lt;li&gt;我总是听妈妈提起外婆，但我却没有见过她一面&lt;/li&gt;&lt;/ul&gt;" style="text;html=1;strokeColor=none;fillColor=none;align=left;verticalAlign=middle;whiteSpace=wrap;rounded=0;fontSize=15;" vertex="1" parent="1">
          <mxGeometry x="392" y="320" width="370" height="30" as="geometry" />
        </mxCell>
        <mxCell id="BToxjoX7GWgsHcNTnLzm-19" value="希望认真的与ta告别" style="text;html=1;strokeColor=none;fillColor=none;align=left;verticalAlign=middle;whiteSpace=wrap;rounded=0;fontSize=15;" vertex="1" parent="1">
          <mxGeometry x="517" y="516" width="290" height="10" as="geometry" />
        </mxCell>
        <mxCell id="BToxjoX7GWgsHcNTnLzm-20" value="希望ta还在我身旁" style="text;html=1;strokeColor=none;fillColor=none;align=left;verticalAlign=middle;whiteSpace=wrap;rounded=0;fontSize=15;" vertex="1" parent="1">
          <mxGeometry x="517" y="550" width="290" height="10" as="geometry" />
        </mxCell>
      </root>
    </mxGraphModel>
  </diagram>
</mxfile>
